<mxfile host="" modified="2020-06-10T08:40:41.734Z" agent="5.0 (Macintosh; Intel Mac OS X 10_15_4) AppleWebKit/537.36 (KHTML, like Gecko) Code/1.45.1 Chrome/78.0.3904.130 Electron/7.2.4 Safari/537.36" etag="GH30eoHjiWBdYNrZp9M7" version="13.1.3">
    <diagram id="6hGFLwfOUW9BJ-s0fimq" name="Page-1">
        <mxGraphModel dx="1508" dy="785" grid="1" gridSize="10" guides="1" tooltips="1" connect="1" arrows="1" fold="1" page="1" pageScale="1" pageWidth="827" pageHeight="1169" math="0" shadow="0">
            <root>
                <mxCell id="0"/>
                <mxCell id="1" parent="0"/>
                <mxCell id="5" style="edgeStyle=orthogonalEdgeStyle;rounded=0;orthogonalLoop=1;jettySize=auto;html=1;exitX=1;exitY=0.5;exitDx=0;exitDy=0;" edge="1" parent="1" source="3" target="4">
                    <mxGeometry relative="1" as="geometry"/>
                </mxCell>
                <mxCell id="6" value="napi_poll" style="edgeLabel;html=1;align=center;verticalAlign=middle;resizable=0;points=[];" vertex="1" connectable="0" parent="5">
                    <mxGeometry x="-0.1813" y="3" relative="1" as="geometry">
                        <mxPoint as="offset"/>
                    </mxGeometry>
                </mxCell>
                <mxCell id="3" value="&lt;div style=&quot;color: rgb(171 , 178 , 191) ; background-color: rgb(40 , 44 , 52) ; font-family: &amp;#34;monaco&amp;#34; , &amp;#34;menlo&amp;#34; , &amp;#34;monaco&amp;#34; , &amp;#34;courier new&amp;#34; , monospace ; font-weight: normal ; font-size: 13px ; line-height: 20px&quot;&gt;&lt;div&gt;&lt;span style=&quot;color: #c678dd&quot;&gt;static&lt;/span&gt;&lt;span style=&quot;color: #abb2bf&quot;&gt; &lt;/span&gt;&lt;span style=&quot;color: #c678dd&quot;&gt;void&lt;/span&gt;&lt;span style=&quot;color: #abb2bf&quot;&gt; &lt;/span&gt;&lt;span style=&quot;color: #61afef&quot;&gt;net_rx_action&lt;/span&gt;&lt;span style=&quot;color: #abb2bf&quot;&gt;(&lt;/span&gt;&lt;span style=&quot;color: #c678dd&quot;&gt;struct&lt;/span&gt;&lt;span style=&quot;color: #e06c75&quot;&gt; softirq_action &lt;/span&gt;&lt;span style=&quot;color: #c678dd&quot;&gt;*&lt;/span&gt;&lt;span style=&quot;color: #e06c75 ; font-style: italic&quot;&gt;h&lt;/span&gt;&lt;span style=&quot;color: #abb2bf&quot;&gt;)&lt;/span&gt;&lt;/div&gt;&lt;div&gt;&lt;span style=&quot;color: #abb2bf&quot;&gt;{&lt;/span&gt;&lt;/div&gt;&lt;div&gt;&lt;span style=&quot;color: #abb2bf&quot;&gt;&lt;/span&gt;&lt;span style=&quot;color: #7f848e ; font-style: italic&quot;&gt;&amp;nbsp; &amp;nbsp; //xj:获取当前cpu的软中断&lt;/span&gt;&lt;/div&gt;&lt;div&gt;&lt;span style=&quot;color: #abb2bf&quot;&gt;&lt;/span&gt;&lt;span style=&quot;color: #c678dd&quot;&gt;&amp;nbsp; &amp;nbsp; struct&lt;/span&gt;&lt;span style=&quot;color: #abb2bf&quot;&gt; softnet_data &lt;/span&gt;&lt;span style=&quot;color: #c678dd&quot;&gt;*&lt;/span&gt;&lt;span style=&quot;color: #abb2bf&quot;&gt;sd &lt;/span&gt;&lt;span style=&quot;color: #c678dd&quot;&gt;=&lt;/span&gt;&lt;span style=&quot;color: #abb2bf&quot;&gt; &lt;/span&gt;&lt;span style=&quot;color: #61afef&quot;&gt;this_cpu_ptr&lt;/span&gt;&lt;span style=&quot;color: #abb2bf&quot;&gt;(&lt;/span&gt;&lt;span style=&quot;color: #c678dd&quot;&gt;&amp;amp;&lt;/span&gt;&lt;span style=&quot;color: #abb2bf&quot;&gt;softnet_data);&lt;/span&gt;&lt;/div&gt;&lt;div&gt;&lt;span style=&quot;color: #abb2bf&quot;&gt;&lt;/span&gt;&lt;span style=&quot;color: #c678dd&quot;&gt;&amp;nbsp; &amp;nbsp; unsigned&lt;/span&gt;&lt;span style=&quot;color: #abb2bf&quot;&gt; &lt;/span&gt;&lt;span style=&quot;color: #c678dd&quot;&gt;long&lt;/span&gt;&lt;span style=&quot;color: #abb2bf&quot;&gt; time_limit &lt;/span&gt;&lt;span style=&quot;color: #c678dd&quot;&gt;=&lt;/span&gt;&lt;span style=&quot;color: #abb2bf&quot;&gt; jiffies &lt;/span&gt;&lt;span style=&quot;color: #c678dd&quot;&gt;+&lt;/span&gt;&lt;span style=&quot;color: #abb2bf&quot;&gt; &lt;/span&gt;&lt;span style=&quot;color: #d19a66&quot;&gt;2&lt;/span&gt;&lt;span style=&quot;color: #abb2bf&quot;&gt;;&lt;/span&gt;&lt;/div&gt;&lt;div&gt;&lt;span style=&quot;color: #abb2bf&quot;&gt;&lt;/span&gt;&lt;span style=&quot;color: #c678dd&quot;&gt;&amp;nbsp; &amp;nbsp; int&lt;/span&gt;&lt;span style=&quot;color: #abb2bf&quot;&gt; budget &lt;/span&gt;&lt;span style=&quot;color: #c678dd&quot;&gt;=&lt;/span&gt;&lt;span style=&quot;color: #abb2bf&quot;&gt; netdev_budget;&lt;/span&gt;&lt;/div&gt;&lt;div&gt;&lt;span style=&quot;color: #abb2bf&quot;&gt;&lt;/span&gt;&lt;span style=&quot;color: #61afef&quot;&gt;&amp;nbsp; &amp;nbsp; LIST_HEAD&lt;/span&gt;&lt;span style=&quot;color: #abb2bf&quot;&gt;(list);&lt;/span&gt;&lt;/div&gt;&lt;div&gt;&lt;span style=&quot;color: #abb2bf&quot;&gt;&lt;/span&gt;&lt;span style=&quot;color: #61afef&quot;&gt;&amp;nbsp; &amp;nbsp; LIST_HEAD&lt;/span&gt;&lt;span style=&quot;color: #abb2bf&quot;&gt;(repoll);&lt;/span&gt;&lt;/div&gt;&lt;br&gt;&lt;div&gt;&lt;span style=&quot;color: #abb2bf&quot;&gt;&lt;/span&gt;&lt;span style=&quot;color: #61afef&quot;&gt;&amp;nbsp; &amp;nbsp; local_irq_disable&lt;/span&gt;&lt;span style=&quot;color: #abb2bf&quot;&gt;();&lt;/span&gt;&lt;/div&gt;&lt;div&gt;&lt;span style=&quot;color: #abb2bf&quot;&gt;&lt;/span&gt;&lt;span style=&quot;color: #61afef&quot;&gt;&amp;nbsp; &amp;nbsp; list_splice_init&lt;/span&gt;&lt;span style=&quot;color: #abb2bf&quot;&gt;(&lt;/span&gt;&lt;span style=&quot;color: #c678dd&quot;&gt;&amp;amp;&lt;/span&gt;&lt;span style=&quot;color: #e06c75&quot;&gt;sd&lt;/span&gt;&lt;span style=&quot;color: #abb2bf&quot;&gt;-&amp;gt;&lt;/span&gt;&lt;span style=&quot;color: #e06c75&quot;&gt;poll_list&lt;/span&gt;&lt;span style=&quot;color: #abb2bf&quot;&gt;, &lt;/span&gt;&lt;span style=&quot;color: #c678dd&quot;&gt;&amp;amp;&lt;/span&gt;&lt;span style=&quot;color: #abb2bf&quot;&gt;list);&lt;/span&gt;&lt;/div&gt;&lt;div&gt;&lt;span style=&quot;color: #abb2bf&quot;&gt;&lt;/span&gt;&lt;span style=&quot;color: #61afef&quot;&gt;&amp;nbsp; &amp;nbsp; local_irq_enable&lt;/span&gt;&lt;span style=&quot;color: #abb2bf&quot;&gt;();&lt;/span&gt;&lt;/div&gt;&lt;br&gt;&lt;div&gt;&lt;span style=&quot;color: #abb2bf&quot;&gt;&lt;/span&gt;&lt;span style=&quot;color: #c678dd&quot;&gt;&amp;nbsp; &amp;nbsp; for&lt;/span&gt;&lt;span style=&quot;color: #abb2bf&quot;&gt; (;;)&lt;/span&gt;&lt;/div&gt;&lt;div&gt;&lt;span style=&quot;color: #abb2bf&quot;&gt;&amp;nbsp; &amp;nbsp; {&lt;/span&gt;&lt;/div&gt;&lt;div&gt;&lt;span style=&quot;color: #abb2bf&quot;&gt;&lt;/span&gt;&lt;span style=&quot;color: #c678dd&quot;&gt;&amp;nbsp; &amp;nbsp; &amp;nbsp; &amp;nbsp; struct&lt;/span&gt;&lt;span style=&quot;color: #abb2bf&quot;&gt; napi_struct &lt;/span&gt;&lt;span style=&quot;color: #c678dd&quot;&gt;*&lt;/span&gt;&lt;span style=&quot;color: #abb2bf&quot;&gt;n;&lt;/span&gt;&lt;/div&gt;&lt;div&gt;&lt;span style=&quot;color: #abb2bf&quot;&gt;&lt;/span&gt;&lt;span style=&quot;color: #c678dd&quot;&gt;&amp;nbsp; &amp;nbsp; &amp;nbsp; &amp;nbsp; ...&lt;/span&gt;&lt;/div&gt;&lt;div&gt;&lt;span style=&quot;color: #abb2bf&quot;&gt;&lt;/span&gt;&lt;span style=&quot;color: #7f848e ; font-style: italic&quot;&gt;&amp;nbsp; &amp;nbsp; &amp;nbsp; &amp;nbsp; //xj:从poll_list取出网络包到达的设备&lt;/span&gt;&lt;/div&gt;&lt;div&gt;&lt;span style=&quot;color: #abb2bf&quot;&gt;&amp;nbsp; &amp;nbsp; &amp;nbsp; &amp;nbsp; n &lt;/span&gt;&lt;span style=&quot;color: #c678dd&quot;&gt;=&lt;/span&gt;&lt;span style=&quot;color: #abb2bf&quot;&gt; &lt;/span&gt;&lt;span style=&quot;color: #61afef&quot;&gt;list_first_entry&lt;/span&gt;&lt;span style=&quot;color: #abb2bf&quot;&gt;(&lt;/span&gt;&lt;span style=&quot;color: #c678dd&quot;&gt;&amp;amp;&lt;/span&gt;&lt;span style=&quot;color: #abb2bf&quot;&gt;list, &lt;/span&gt;&lt;span style=&quot;color: #c678dd&quot;&gt;struct&lt;/span&gt;&lt;span style=&quot;color: #abb2bf&quot;&gt; napi_struct, poll_list);&lt;/span&gt;&lt;/div&gt;&lt;div&gt;&lt;span style=&quot;color: #abb2bf&quot;&gt;&lt;/span&gt;&lt;span style=&quot;color: #7f848e ; font-style: italic&quot;&gt;&amp;nbsp; &amp;nbsp; &amp;nbsp; &amp;nbsp; //xj:调用napi_poll从网卡取数据&lt;/span&gt;&lt;/div&gt;&lt;div&gt;&lt;span style=&quot;color: #abb2bf&quot;&gt;&amp;nbsp; &amp;nbsp; &amp;nbsp; &amp;nbsp; budget &lt;/span&gt;&lt;span style=&quot;color: #c678dd&quot;&gt;-=&lt;/span&gt;&lt;span style=&quot;color: #abb2bf&quot;&gt; &lt;/span&gt;&lt;span style=&quot;color: #61afef&quot;&gt;napi_poll&lt;/span&gt;&lt;span style=&quot;color: #abb2bf&quot;&gt;(n, &lt;/span&gt;&lt;span style=&quot;color: #c678dd&quot;&gt;&amp;amp;&lt;/span&gt;&lt;span style=&quot;color: #abb2bf&quot;&gt;repoll);&lt;/span&gt;&lt;/div&gt;&lt;div&gt;&lt;span style=&quot;color: #abb2bf&quot;&gt;&amp;nbsp; &amp;nbsp; &amp;nbsp; &amp;nbsp; ...&lt;/span&gt;&lt;/div&gt;&lt;div&gt;&lt;span style=&quot;color: #abb2bf&quot;&gt;&amp;nbsp; &amp;nbsp; }&lt;/span&gt;&lt;/div&gt;&lt;br&gt;&lt;div&gt;&lt;span style=&quot;color: #abb2bf&quot;&gt;&lt;/span&gt;&lt;span style=&quot;color: #61afef&quot;&gt;&amp;nbsp; &amp;nbsp; __kfree_skb_flush&lt;/span&gt;&lt;span style=&quot;color: #abb2bf&quot;&gt;();&lt;/span&gt;&lt;/div&gt;&lt;div&gt;&lt;span style=&quot;color: #abb2bf&quot;&gt;&lt;/span&gt;&lt;span style=&quot;color: #61afef&quot;&gt;&amp;nbsp; &amp;nbsp; local_irq_disable&lt;/span&gt;&lt;span style=&quot;color: #abb2bf&quot;&gt;();&lt;/span&gt;&lt;/div&gt;&lt;br&gt;&lt;div&gt;&lt;span style=&quot;color: #abb2bf&quot;&gt;&lt;/span&gt;&lt;span style=&quot;color: #61afef&quot;&gt;&amp;nbsp; &amp;nbsp; list_splice_tail_init&lt;/span&gt;&lt;span style=&quot;color: #abb2bf&quot;&gt;(&lt;/span&gt;&lt;span style=&quot;color: #c678dd&quot;&gt;&amp;amp;&lt;/span&gt;&lt;span style=&quot;color: #e06c75&quot;&gt;sd&lt;/span&gt;&lt;span style=&quot;color: #abb2bf&quot;&gt;-&amp;gt;&lt;/span&gt;&lt;span style=&quot;color: #e06c75&quot;&gt;poll_list&lt;/span&gt;&lt;span style=&quot;color: #abb2bf&quot;&gt;, &lt;/span&gt;&lt;span style=&quot;color: #c678dd&quot;&gt;&amp;amp;&lt;/span&gt;&lt;span style=&quot;color: #abb2bf&quot;&gt;list);&lt;/span&gt;&lt;/div&gt;&lt;div&gt;&lt;span style=&quot;color: #abb2bf&quot;&gt;&lt;/span&gt;&lt;span style=&quot;color: #61afef&quot;&gt;&amp;nbsp; &amp;nbsp; list_splice_tail&lt;/span&gt;&lt;span style=&quot;color: #abb2bf&quot;&gt;(&lt;/span&gt;&lt;span style=&quot;color: #c678dd&quot;&gt;&amp;amp;&lt;/span&gt;&lt;span style=&quot;color: #abb2bf&quot;&gt;repoll, &lt;/span&gt;&lt;span style=&quot;color: #c678dd&quot;&gt;&amp;amp;&lt;/span&gt;&lt;span style=&quot;color: #abb2bf&quot;&gt;list);&lt;/span&gt;&lt;/div&gt;&lt;div&gt;&lt;span style=&quot;color: #abb2bf&quot;&gt;&lt;/span&gt;&lt;span style=&quot;color: #61afef&quot;&gt;&amp;nbsp; &amp;nbsp; list_splice&lt;/span&gt;&lt;span style=&quot;color: #abb2bf&quot;&gt;(&lt;/span&gt;&lt;span style=&quot;color: #c678dd&quot;&gt;&amp;amp;&lt;/span&gt;&lt;span style=&quot;color: #abb2bf&quot;&gt;list, &lt;/span&gt;&lt;span style=&quot;color: #c678dd&quot;&gt;&amp;amp;&lt;/span&gt;&lt;span style=&quot;color: #e06c75&quot;&gt;sd&lt;/span&gt;&lt;span style=&quot;color: #abb2bf&quot;&gt;-&amp;gt;&lt;/span&gt;&lt;span style=&quot;color: #e06c75&quot;&gt;poll_list&lt;/span&gt;&lt;span style=&quot;color: #abb2bf&quot;&gt;);&lt;/span&gt;&lt;/div&gt;&lt;div&gt;&lt;span style=&quot;color: #abb2bf&quot;&gt;&lt;/span&gt;&lt;span style=&quot;color: #c678dd&quot;&gt;&amp;nbsp; &amp;nbsp; if&lt;/span&gt;&lt;span style=&quot;color: #abb2bf&quot;&gt; (&lt;/span&gt;&lt;span style=&quot;color: #56b6c2&quot;&gt;!&lt;/span&gt;&lt;span style=&quot;color: #61afef&quot;&gt;list_empty&lt;/span&gt;&lt;span style=&quot;color: #abb2bf&quot;&gt;(&lt;/span&gt;&lt;span style=&quot;color: #c678dd&quot;&gt;&amp;amp;&lt;/span&gt;&lt;span style=&quot;color: #e06c75&quot;&gt;sd&lt;/span&gt;&lt;span style=&quot;color: #abb2bf&quot;&gt;-&amp;gt;&lt;/span&gt;&lt;span style=&quot;color: #e06c75&quot;&gt;poll_list&lt;/span&gt;&lt;span style=&quot;color: #abb2bf&quot;&gt;))&lt;/span&gt;&lt;/div&gt;&lt;div&gt;&lt;span style=&quot;color: #abb2bf&quot;&gt;&lt;/span&gt;&lt;span style=&quot;color: #61afef&quot;&gt;&amp;nbsp; &amp;nbsp; &amp;nbsp; &amp;nbsp; __raise_softirq_irqoff&lt;/span&gt;&lt;span style=&quot;color: #abb2bf&quot;&gt;(NET_RX_SOFTIRQ);&lt;/span&gt;&lt;/div&gt;&lt;br&gt;&lt;div&gt;&lt;span style=&quot;color: #abb2bf&quot;&gt;&lt;/span&gt;&lt;span style=&quot;color: #61afef&quot;&gt;&amp;nbsp; &amp;nbsp; net_rps_action_and_irq_enable&lt;/span&gt;&lt;span style=&quot;color: #abb2bf&quot;&gt;(sd);&lt;/span&gt;&lt;/div&gt;&lt;div&gt;&lt;span style=&quot;color: #abb2bf&quot;&gt;}&lt;/span&gt;&lt;/div&gt;&lt;/div&gt;" style="text;whiteSpace=wrap;html=1;" vertex="1" parent="1">
                    <mxGeometry x="20" y="30" width="530" height="710" as="geometry"/>
                </mxCell>
                <mxCell id="8" style="edgeStyle=orthogonalEdgeStyle;rounded=0;orthogonalLoop=1;jettySize=auto;html=1;exitX=1;exitY=0.5;exitDx=0;exitDy=0;" edge="1" parent="1" source="4" target="7">
                    <mxGeometry relative="1" as="geometry"/>
                </mxCell>
                <mxCell id="9" value="e.g. igb_poll" style="edgeLabel;html=1;align=center;verticalAlign=middle;resizable=0;points=[];" vertex="1" connectable="0" parent="8">
                    <mxGeometry x="-0.1014" y="-2" relative="1" as="geometry">
                        <mxPoint as="offset"/>
                    </mxGeometry>
                </mxCell>
                <mxCell id="4" value="&lt;div style=&quot;color: rgb(171 , 178 , 191) ; background-color: rgb(40 , 44 , 52) ; font-family: &amp;#34;monaco&amp;#34; , &amp;#34;menlo&amp;#34; , &amp;#34;monaco&amp;#34; , &amp;#34;courier new&amp;#34; , monospace ; font-weight: normal ; font-size: 13px ; line-height: 20px&quot;&gt;&lt;div&gt;&lt;span style=&quot;color: #c678dd&quot;&gt;static&lt;/span&gt;&lt;span style=&quot;color: #abb2bf&quot;&gt; &lt;/span&gt;&lt;span style=&quot;color: #c678dd&quot;&gt;int&lt;/span&gt;&lt;span style=&quot;color: #abb2bf&quot;&gt; &lt;/span&gt;&lt;span style=&quot;color: #61afef&quot;&gt;napi_poll&lt;/span&gt;&lt;span style=&quot;color: #abb2bf&quot;&gt;(&lt;/span&gt;&lt;span style=&quot;color: #c678dd&quot;&gt;struct&lt;/span&gt;&lt;span style=&quot;color: #e06c75&quot;&gt; napi_struct &lt;/span&gt;&lt;span style=&quot;color: #c678dd&quot;&gt;*&lt;/span&gt;&lt;span style=&quot;color: #e06c75 ; font-style: italic&quot;&gt;n&lt;/span&gt;&lt;span style=&quot;color: #abb2bf&quot;&gt;,&lt;/span&gt;&lt;span style=&quot;color: #e06c75&quot;&gt; &lt;/span&gt;&lt;span style=&quot;color: #c678dd&quot;&gt;struct&lt;/span&gt;&lt;span style=&quot;color: #e06c75&quot;&gt; list_head &lt;/span&gt;&lt;span style=&quot;color: #c678dd&quot;&gt;*&lt;/span&gt;&lt;span style=&quot;color: #e06c75 ; font-style: italic&quot;&gt;repoll&lt;/span&gt;&lt;span style=&quot;color: #abb2bf&quot;&gt;)&lt;/span&gt;&lt;/div&gt;&lt;div&gt;&lt;span style=&quot;color: #abb2bf&quot;&gt;{&lt;/span&gt;&lt;/div&gt;&lt;div&gt;&lt;span style=&quot;color: #abb2bf&quot;&gt;&lt;/span&gt;&lt;span style=&quot;color: #c678dd&quot;&gt;&amp;nbsp; &amp;nbsp; void&lt;/span&gt;&lt;span style=&quot;color: #abb2bf&quot;&gt; &lt;/span&gt;&lt;span style=&quot;color: #c678dd&quot;&gt;*&lt;/span&gt;&lt;span style=&quot;color: #abb2bf&quot;&gt;have;&lt;/span&gt;&lt;/div&gt;&lt;div&gt;&lt;span style=&quot;color: #abb2bf&quot;&gt;&lt;/span&gt;&lt;span style=&quot;color: #c678dd&quot;&gt;&amp;nbsp; &amp;nbsp; int&lt;/span&gt;&lt;span style=&quot;color: #abb2bf&quot;&gt; work, weight;&lt;/span&gt;&lt;/div&gt;&lt;br&gt;&lt;div&gt;&lt;span style=&quot;color: #abb2bf&quot;&gt;&lt;/span&gt;&lt;span style=&quot;color: #61afef&quot;&gt;&amp;nbsp; &amp;nbsp; list_del_init&lt;/span&gt;&lt;span style=&quot;color: #abb2bf&quot;&gt;(&lt;/span&gt;&lt;span style=&quot;color: #c678dd&quot;&gt;&amp;amp;&lt;/span&gt;&lt;span style=&quot;color: #e06c75&quot;&gt;n&lt;/span&gt;&lt;span style=&quot;color: #abb2bf&quot;&gt;-&amp;gt;&lt;/span&gt;&lt;span style=&quot;color: #e06c75&quot;&gt;poll_list&lt;/span&gt;&lt;span style=&quot;color: #abb2bf&quot;&gt;);&lt;/span&gt;&lt;/div&gt;&lt;br&gt;&lt;div&gt;&lt;span style=&quot;color: #abb2bf&quot;&gt;&amp;nbsp; &amp;nbsp; have &lt;/span&gt;&lt;span style=&quot;color: #c678dd&quot;&gt;=&lt;/span&gt;&lt;span style=&quot;color: #abb2bf&quot;&gt; &lt;/span&gt;&lt;span style=&quot;color: #61afef&quot;&gt;netpoll_poll_lock&lt;/span&gt;&lt;span style=&quot;color: #abb2bf&quot;&gt;(n);&lt;/span&gt;&lt;/div&gt;&lt;br&gt;&lt;div&gt;&lt;span style=&quot;color: #abb2bf&quot;&gt;&amp;nbsp; &amp;nbsp; weight &lt;/span&gt;&lt;span style=&quot;color: #c678dd&quot;&gt;=&lt;/span&gt;&lt;span style=&quot;color: #abb2bf&quot;&gt; &lt;/span&gt;&lt;span style=&quot;color: #e06c75&quot;&gt;n&lt;/span&gt;&lt;span style=&quot;color: #abb2bf&quot;&gt;-&amp;gt;&lt;/span&gt;&lt;span style=&quot;color: #e06c75&quot;&gt;weight&lt;/span&gt;&lt;span style=&quot;color: #abb2bf&quot;&gt;;&lt;/span&gt;&lt;/div&gt;&lt;div&gt;&lt;span style=&quot;color: #abb2bf&quot;&gt;&amp;nbsp; &amp;nbsp; work &lt;/span&gt;&lt;span style=&quot;color: #c678dd&quot;&gt;=&lt;/span&gt;&lt;span style=&quot;color: #abb2bf&quot;&gt; &lt;/span&gt;&lt;span style=&quot;color: #d19a66&quot;&gt;0&lt;/span&gt;&lt;span style=&quot;color: #abb2bf&quot;&gt;;&lt;/span&gt;&lt;/div&gt;&lt;div&gt;&lt;span style=&quot;color: #abb2bf&quot;&gt;&lt;/span&gt;&lt;span style=&quot;color: #c678dd&quot;&gt;&amp;nbsp; &amp;nbsp; if&lt;/span&gt;&lt;span style=&quot;color: #abb2bf&quot;&gt; (&lt;/span&gt;&lt;span style=&quot;color: #61afef&quot;&gt;test_bit&lt;/span&gt;&lt;span style=&quot;color: #abb2bf&quot;&gt;(NAPI_STATE_SCHED, &lt;/span&gt;&lt;span style=&quot;color: #c678dd&quot;&gt;&amp;amp;&lt;/span&gt;&lt;span style=&quot;color: #e06c75&quot;&gt;n&lt;/span&gt;&lt;span style=&quot;color: #abb2bf&quot;&gt;-&amp;gt;&lt;/span&gt;&lt;span style=&quot;color: #e06c75&quot;&gt;state&lt;/span&gt;&lt;span style=&quot;color: #abb2bf&quot;&gt;))&lt;/span&gt;&lt;/div&gt;&lt;div&gt;&lt;span style=&quot;color: #abb2bf&quot;&gt;&amp;nbsp; &amp;nbsp; {&lt;/span&gt;&lt;/div&gt;&lt;div&gt;&lt;span style=&quot;color: #abb2bf&quot;&gt;&lt;/span&gt;&lt;span style=&quot;color: #7f848e ; font-style: italic&quot;&gt;&amp;nbsp; &amp;nbsp; &amp;nbsp; &amp;nbsp; //xj:调用napi结构的poll函数。poll函数由NIC驱动注册。比如igb_poll&lt;/span&gt;&lt;/div&gt;&lt;div&gt;&lt;span style=&quot;color: #abb2bf&quot;&gt;&amp;nbsp; &amp;nbsp; &amp;nbsp; &amp;nbsp; work &lt;/span&gt;&lt;span style=&quot;color: #c678dd&quot;&gt;=&lt;/span&gt;&lt;span style=&quot;color: #abb2bf&quot;&gt; &lt;/span&gt;&lt;span style=&quot;color: #e06c75&quot;&gt;n&lt;/span&gt;&lt;span style=&quot;color: #abb2bf&quot;&gt;-&amp;gt;&lt;/span&gt;&lt;span style=&quot;color: #61afef&quot;&gt;poll&lt;/span&gt;&lt;span style=&quot;color: #abb2bf&quot;&gt;(n, weight);&lt;/span&gt;&lt;/div&gt;&lt;div&gt;&lt;span style=&quot;color: #abb2bf&quot;&gt;&lt;/span&gt;&lt;span style=&quot;color: #61afef&quot;&gt;&amp;nbsp; &amp;nbsp; &amp;nbsp; &amp;nbsp; trace_napi_poll&lt;/span&gt;&lt;span style=&quot;color: #abb2bf&quot;&gt;(n);&lt;/span&gt;&lt;/div&gt;&lt;div&gt;&lt;span style=&quot;color: #abb2bf&quot;&gt;&amp;nbsp; &amp;nbsp; }&lt;/span&gt;&lt;/div&gt;&lt;br&gt;&lt;div&gt;&lt;span style=&quot;color: #abb2bf&quot;&gt;&lt;/span&gt;&lt;span style=&quot;color: #61afef&quot;&gt;&amp;nbsp; &amp;nbsp; WARN_ON_ONCE&lt;/span&gt;&lt;span style=&quot;color: #abb2bf&quot;&gt;(work &lt;/span&gt;&lt;span style=&quot;color: #c678dd&quot;&gt;&amp;gt;&lt;/span&gt;&lt;span style=&quot;color: #abb2bf&quot;&gt; weight);&lt;/span&gt;&lt;/div&gt;&lt;br&gt;&lt;div&gt;&lt;span style=&quot;color: #abb2bf&quot;&gt;&lt;/span&gt;&lt;span style=&quot;color: #c678dd&quot;&gt;&amp;nbsp; &amp;nbsp; if&lt;/span&gt;&lt;span style=&quot;color: #abb2bf&quot;&gt; (&lt;/span&gt;&lt;span style=&quot;color: #61afef&quot;&gt;likely&lt;/span&gt;&lt;span style=&quot;color: #abb2bf&quot;&gt;(work &lt;/span&gt;&lt;span style=&quot;color: #c678dd&quot;&gt;&amp;lt;&lt;/span&gt;&lt;span style=&quot;color: #abb2bf&quot;&gt; weight))&lt;/span&gt;&lt;/div&gt;&lt;div&gt;&lt;span style=&quot;color: #abb2bf&quot;&gt;&lt;/span&gt;&lt;span style=&quot;color: #c678dd&quot;&gt;&amp;nbsp; &amp;nbsp; &amp;nbsp; &amp;nbsp; goto&lt;/span&gt;&lt;span style=&quot;color: #abb2bf&quot;&gt; out_unlock;&lt;/span&gt;&lt;/div&gt;&lt;br&gt;&lt;div&gt;&lt;span style=&quot;color: #abb2bf&quot;&gt;&lt;/span&gt;&lt;span style=&quot;color: #c678dd&quot;&gt;&amp;nbsp; &amp;nbsp; if&lt;/span&gt;&lt;span style=&quot;color: #abb2bf&quot;&gt; (&lt;/span&gt;&lt;span style=&quot;color: #61afef&quot;&gt;unlikely&lt;/span&gt;&lt;span style=&quot;color: #abb2bf&quot;&gt;(&lt;/span&gt;&lt;span style=&quot;color: #61afef&quot;&gt;napi_disable_pending&lt;/span&gt;&lt;span style=&quot;color: #abb2bf&quot;&gt;(n)))&lt;/span&gt;&lt;/div&gt;&lt;div&gt;&lt;span style=&quot;color: #abb2bf&quot;&gt;&amp;nbsp; &amp;nbsp; {&lt;/span&gt;&lt;/div&gt;&lt;div&gt;&lt;span style=&quot;color: #abb2bf&quot;&gt;&lt;/span&gt;&lt;span style=&quot;color: #61afef&quot;&gt;&amp;nbsp; &amp;nbsp; &amp;nbsp; &amp;nbsp; napi_complete&lt;/span&gt;&lt;span style=&quot;color: #abb2bf&quot;&gt;(n);&lt;/span&gt;&lt;/div&gt;&lt;div&gt;&lt;span style=&quot;color: #abb2bf&quot;&gt;&lt;/span&gt;&lt;span style=&quot;color: #c678dd&quot;&gt;&amp;nbsp; &amp;nbsp; &amp;nbsp; &amp;nbsp; goto&lt;/span&gt;&lt;span style=&quot;color: #abb2bf&quot;&gt; out_unlock;&lt;/span&gt;&lt;/div&gt;&lt;div&gt;&lt;span style=&quot;color: #abb2bf&quot;&gt;&amp;nbsp; &amp;nbsp; }&lt;/span&gt;&lt;/div&gt;&lt;br&gt;&lt;div&gt;&lt;span style=&quot;color: #abb2bf&quot;&gt;&lt;/span&gt;&lt;span style=&quot;color: #c678dd&quot;&gt;&amp;nbsp; &amp;nbsp; if&lt;/span&gt;&lt;span style=&quot;color: #abb2bf&quot;&gt; (&lt;/span&gt;&lt;span style=&quot;color: #e06c75&quot;&gt;n&lt;/span&gt;&lt;span style=&quot;color: #abb2bf&quot;&gt;-&amp;gt;&lt;/span&gt;&lt;span style=&quot;color: #e06c75&quot;&gt;gro_list&lt;/span&gt;&lt;span style=&quot;color: #abb2bf&quot;&gt;)&lt;/span&gt;&lt;/div&gt;&lt;div&gt;&lt;span style=&quot;color: #abb2bf&quot;&gt;&amp;nbsp; &amp;nbsp; {&lt;/span&gt;&lt;/div&gt;&lt;div&gt;&lt;span style=&quot;color: #abb2bf&quot;&gt;&lt;/span&gt;&lt;span style=&quot;color: #61afef&quot;&gt;&amp;nbsp; &amp;nbsp; &amp;nbsp; &amp;nbsp; napi_gro_flush&lt;/span&gt;&lt;span style=&quot;color: #abb2bf&quot;&gt;(n, HZ &lt;/span&gt;&lt;span style=&quot;color: #c678dd&quot;&gt;&amp;gt;=&lt;/span&gt;&lt;span style=&quot;color: #abb2bf&quot;&gt; &lt;/span&gt;&lt;span style=&quot;color: #d19a66&quot;&gt;1000&lt;/span&gt;&lt;span style=&quot;color: #abb2bf&quot;&gt;);&lt;/span&gt;&lt;/div&gt;&lt;div&gt;&lt;span style=&quot;color: #abb2bf&quot;&gt;&amp;nbsp; &amp;nbsp; }&lt;/span&gt;&lt;/div&gt;&amp;nbsp; &amp;nbsp; ...&lt;br&gt;&lt;div&gt;&lt;span style=&quot;color: #abb2bf&quot;&gt;&lt;/span&gt;&lt;span style=&quot;color: #c678dd&quot;&gt;&amp;nbsp; &amp;nbsp; return&lt;/span&gt;&lt;span style=&quot;color: #abb2bf&quot;&gt; work;&lt;/span&gt;&lt;/div&gt;&lt;div&gt;&lt;span style=&quot;color: #abb2bf&quot;&gt;}&lt;/span&gt;&lt;/div&gt;&lt;/div&gt;" style="text;whiteSpace=wrap;html=1;" vertex="1" parent="1">
                    <mxGeometry x="640" y="20" width="550" height="730" as="geometry"/>
                </mxCell>
                <mxCell id="11" style="edgeStyle=orthogonalEdgeStyle;rounded=0;orthogonalLoop=1;jettySize=auto;html=1;exitX=1;exitY=0.5;exitDx=0;exitDy=0;" edge="1" parent="1" source="7" target="10">
                    <mxGeometry relative="1" as="geometry"/>
                </mxCell>
                <mxCell id="7" value="&lt;div style=&quot;background-color: rgb(40 , 44 , 52) ; font-family: &amp;#34;monaco&amp;#34; , &amp;#34;menlo&amp;#34; , &amp;#34;monaco&amp;#34; , &amp;#34;courier new&amp;#34; , monospace ; font-weight: normal ; font-size: 13px ; line-height: 20px&quot;&gt;&lt;div style=&quot;color: rgb(171 , 178 , 191)&quot;&gt;&lt;span style=&quot;color: #c678dd&quot;&gt;static&lt;/span&gt;&lt;span style=&quot;color: #abb2bf&quot;&gt; &lt;/span&gt;&lt;span style=&quot;color: #c678dd&quot;&gt;int&lt;/span&gt;&lt;span style=&quot;color: #abb2bf&quot;&gt; &lt;/span&gt;&lt;span style=&quot;color: #61afef&quot;&gt;igb_poll&lt;/span&gt;&lt;span style=&quot;color: #abb2bf&quot;&gt;(&lt;/span&gt;&lt;span style=&quot;color: #c678dd&quot;&gt;struct&lt;/span&gt;&lt;span style=&quot;color: #e06c75&quot;&gt; napi_struct &lt;/span&gt;&lt;span style=&quot;color: #c678dd&quot;&gt;*&lt;/span&gt;&lt;span style=&quot;color: #e06c75 ; font-style: italic&quot;&gt;napi&lt;/span&gt;&lt;span style=&quot;color: #abb2bf&quot;&gt;,&lt;/span&gt;&lt;span style=&quot;color: #e06c75&quot;&gt; &lt;/span&gt;&lt;span style=&quot;color: #c678dd&quot;&gt;int&lt;/span&gt;&lt;span style=&quot;color: #e06c75&quot;&gt; &lt;/span&gt;&lt;span style=&quot;color: #e06c75 ; font-style: italic&quot;&gt;budget&lt;/span&gt;&lt;span style=&quot;color: #abb2bf&quot;&gt;)&lt;/span&gt;&lt;/div&gt;&lt;div style=&quot;color: rgb(171 , 178 , 191)&quot;&gt;&lt;span style=&quot;color: #abb2bf&quot;&gt;{&lt;/span&gt;&lt;/div&gt;&lt;div style=&quot;color: rgb(171 , 178 , 191)&quot;&gt;&lt;span style=&quot;color: #abb2bf&quot;&gt;&lt;/span&gt;&lt;span style=&quot;color: #c678dd&quot;&gt;&amp;nbsp; &amp;nbsp; struct&lt;/span&gt;&lt;span style=&quot;color: #abb2bf&quot;&gt; igb_q_vector &lt;/span&gt;&lt;span style=&quot;color: #c678dd&quot;&gt;*&lt;/span&gt;&lt;span style=&quot;color: #abb2bf&quot;&gt;q_vector &lt;/span&gt;&lt;span style=&quot;color: #c678dd&quot;&gt;=&lt;/span&gt;&lt;span style=&quot;color: #abb2bf&quot;&gt; &lt;/span&gt;&lt;span style=&quot;color: #61afef&quot;&gt;container_of&lt;/span&gt;&lt;span style=&quot;color: #abb2bf&quot;&gt;(napi,&amp;nbsp;&lt;/span&gt;&lt;span style=&quot;color: rgb(198 , 120 , 221)&quot;&gt;struct&lt;/span&gt; igb_q_vector,napi);&lt;/div&gt;&lt;div style=&quot;color: rgb(171 , 178 , 191)&quot;&gt;&lt;span style=&quot;color: #abb2bf&quot;&gt;&lt;/span&gt;&lt;span style=&quot;color: #c678dd&quot;&gt;&amp;nbsp; &amp;nbsp; bool&lt;/span&gt;&lt;span style=&quot;color: #abb2bf&quot;&gt; clean_complete &lt;/span&gt;&lt;span style=&quot;color: #c678dd&quot;&gt;=&lt;/span&gt;&lt;span style=&quot;color: #abb2bf&quot;&gt; &lt;/span&gt;&lt;span style=&quot;color: #d19a66&quot;&gt;true&lt;/span&gt;&lt;span style=&quot;color: #abb2bf&quot;&gt;;&lt;/span&gt;&lt;/div&gt;&lt;div style=&quot;color: rgb(171 , 178 , 191)&quot;&gt;&lt;span style=&quot;color: #abb2bf&quot;&gt;&lt;/span&gt;&lt;span style=&quot;color: #c678dd&quot;&gt;&amp;nbsp; &amp;nbsp; int&lt;/span&gt;&lt;span style=&quot;color: #abb2bf&quot;&gt; work_done &lt;/span&gt;&lt;span style=&quot;color: #c678dd&quot;&gt;=&lt;/span&gt;&lt;span style=&quot;color: #abb2bf&quot;&gt; &lt;/span&gt;&lt;span style=&quot;color: #d19a66&quot;&gt;0&lt;/span&gt;&lt;span style=&quot;color: #abb2bf&quot;&gt;;&lt;/span&gt;&lt;/div&gt;&lt;br&gt;&lt;div style=&quot;color: rgb(171 , 178 , 191)&quot;&gt;&lt;span style=&quot;color: #c678dd&quot;&gt;&amp;nbsp; &amp;nbsp; ...&lt;/span&gt;&lt;/div&gt;&lt;div style=&quot;color: rgb(171 , 178 , 191)&quot;&gt;&lt;span style=&quot;color: #abb2bf&quot;&gt;&lt;/span&gt;&lt;span style=&quot;color: #c678dd&quot;&gt;&amp;nbsp; &amp;nbsp; if&lt;/span&gt;&lt;span style=&quot;color: #abb2bf&quot;&gt; (&lt;/span&gt;&lt;span style=&quot;color: #e06c75&quot;&gt;q_vector&lt;/span&gt;&lt;span style=&quot;color: #abb2bf&quot;&gt;-&amp;gt;&lt;/span&gt;&lt;span style=&quot;color: #e06c75&quot;&gt;tx&lt;/span&gt;&lt;span style=&quot;color: #abb2bf&quot;&gt;.&lt;/span&gt;&lt;span style=&quot;color: #e06c75&quot;&gt;ring&lt;/span&gt;&lt;span style=&quot;color: #abb2bf&quot;&gt;)&lt;/span&gt;&lt;/div&gt;&lt;div style=&quot;color: rgb(171 , 178 , 191)&quot;&gt;&lt;span style=&quot;color: #abb2bf&quot;&gt;&amp;nbsp; &amp;nbsp; &amp;nbsp; &amp;nbsp; clean_complete &lt;/span&gt;&lt;span style=&quot;color: #c678dd&quot;&gt;=&lt;/span&gt;&lt;span style=&quot;color: #abb2bf&quot;&gt; &lt;/span&gt;&lt;span style=&quot;color: #61afef&quot;&gt;igb_clean_tx_irq&lt;/span&gt;&lt;span style=&quot;color: #abb2bf&quot;&gt;(q_vector, budget);&lt;/span&gt;&lt;/div&gt;&lt;div style=&quot;color: rgb(171 , 178 , 191)&quot;&gt;&lt;span style=&quot;color: #abb2bf&quot;&gt;&amp;nbsp; &amp;nbsp;&amp;nbsp;&lt;/span&gt;&lt;span style=&quot;font-family: &amp;#34;monaco&amp;#34; , &amp;#34;menlo&amp;#34; , &amp;#34;monaco&amp;#34; , &amp;#34;courier new&amp;#34; , monospace ; color: rgb(198 , 120 , 221)&quot;&gt;if&lt;/span&gt;&lt;span style=&quot;font-family: &amp;#34;monaco&amp;#34; , &amp;#34;menlo&amp;#34; , &amp;#34;monaco&amp;#34; , &amp;#34;courier new&amp;#34; , monospace&quot;&gt; (&lt;/span&gt;&lt;span style=&quot;font-family: &amp;#34;monaco&amp;#34; , &amp;#34;menlo&amp;#34; , &amp;#34;monaco&amp;#34; , &amp;#34;courier new&amp;#34; , monospace ; color: rgb(224 , 108 , 117)&quot;&gt;q_vector&lt;/span&gt;&lt;span style=&quot;font-family: &amp;#34;monaco&amp;#34; , &amp;#34;menlo&amp;#34; , &amp;#34;monaco&amp;#34; , &amp;#34;courier new&amp;#34; , monospace&quot;&gt;-&amp;gt;&lt;/span&gt;&lt;span style=&quot;font-family: &amp;#34;monaco&amp;#34; , &amp;#34;menlo&amp;#34; , &amp;#34;monaco&amp;#34; , &amp;#34;courier new&amp;#34; , monospace ; color: rgb(224 , 108 , 117)&quot;&gt;rx&lt;/span&gt;&lt;span style=&quot;font-family: &amp;#34;monaco&amp;#34; , &amp;#34;menlo&amp;#34; , &amp;#34;monaco&amp;#34; , &amp;#34;courier new&amp;#34; , monospace&quot;&gt;.&lt;/span&gt;&lt;span style=&quot;font-family: &amp;#34;monaco&amp;#34; , &amp;#34;menlo&amp;#34; , &amp;#34;monaco&amp;#34; , &amp;#34;courier new&amp;#34; , monospace ; color: rgb(224 , 108 , 117)&quot;&gt;ring&lt;/span&gt;&lt;span style=&quot;font-family: &amp;#34;monaco&amp;#34; , &amp;#34;menlo&amp;#34; , &amp;#34;monaco&amp;#34; , &amp;#34;courier new&amp;#34; , monospace&quot;&gt;)&lt;/span&gt;&lt;/div&gt;&lt;div style=&quot;font-family: &amp;#34;monaco&amp;#34; , &amp;#34;menlo&amp;#34; , &amp;#34;monaco&amp;#34; , &amp;#34;courier new&amp;#34; , monospace ; line-height: 20px&quot;&gt;&lt;div style=&quot;color: rgb(171 , 178 , 191)&quot;&gt;&amp;nbsp; &amp;nbsp; {&amp;nbsp;&lt;/div&gt;&lt;div&gt;&lt;font color=&quot;#7f848e&quot;&gt;&lt;i&gt;&amp;nbsp; &amp;nbsp; &amp;nbsp; &amp;nbsp;&amp;nbsp;&lt;/i&gt;&lt;/font&gt;&lt;span style=&quot;color: rgb(198 , 120 , 221)&quot;&gt;int&lt;/span&gt;&lt;font color=&quot;#abb2bf&quot;&gt; cleaned &lt;/font&gt;&lt;span style=&quot;color: rgb(198 , 120 , 221)&quot;&gt;=&lt;/span&gt; &lt;span style=&quot;color: rgb(97 , 175 , 239)&quot;&gt;igb_clean_rx_irq&lt;/span&gt;&lt;font color=&quot;#abb2bf&quot;&gt;(q_vector, budget);&lt;/font&gt;&lt;br&gt;&lt;/div&gt;&amp;nbsp; &amp;nbsp; &amp;nbsp; &amp;nbsp; ...&lt;br&gt;&lt;div style=&quot;color: rgb(171 , 178 , 191)&quot;&gt;&amp;nbsp; &amp;nbsp; }&lt;br&gt;&lt;/div&gt;&lt;/div&gt;&lt;font color=&quot;#abb2bf&quot;&gt;&amp;nbsp; &amp;nbsp; ...&lt;/font&gt;&lt;br&gt;&lt;div style=&quot;color: rgb(171 , 178 , 191)&quot;&gt;&lt;span style=&quot;color: #abb2bf&quot;&gt;&lt;/span&gt;&lt;span style=&quot;color: #7f848e ; font-style: italic&quot;&gt;&amp;nbsp; &amp;nbsp; /* If not enough Rx work done, exit the polling mode */&lt;/span&gt;&lt;/div&gt;&lt;div style=&quot;color: rgb(171 , 178 , 191)&quot;&gt;&lt;span style=&quot;color: #abb2bf&quot;&gt;&lt;/span&gt;&lt;span style=&quot;color: #61afef&quot;&gt;&amp;nbsp; &amp;nbsp; napi_complete_done&lt;/span&gt;&lt;span style=&quot;color: #abb2bf&quot;&gt;(napi, work_done);&lt;/span&gt;&lt;/div&gt;&lt;div style=&quot;color: rgb(171 , 178 , 191)&quot;&gt;&lt;span style=&quot;color: #abb2bf&quot;&gt;&lt;/span&gt;&lt;span style=&quot;color: #61afef&quot;&gt;&amp;nbsp; &amp;nbsp; igb_ring_irq_enable&lt;/span&gt;&lt;span style=&quot;color: #abb2bf&quot;&gt;(q_vector);&lt;/span&gt;&lt;/div&gt;&lt;br&gt;&lt;div style=&quot;color: rgb(171 , 178 , 191)&quot;&gt;&lt;span style=&quot;color: #abb2bf&quot;&gt;&lt;/span&gt;&lt;span style=&quot;color: #c678dd&quot;&gt;&amp;nbsp; &amp;nbsp; return&lt;/span&gt;&lt;span style=&quot;color: #abb2bf&quot;&gt; &lt;/span&gt;&lt;span style=&quot;color: #d19a66&quot;&gt;0&lt;/span&gt;&lt;span style=&quot;color: #abb2bf&quot;&gt;;&lt;/span&gt;&lt;/div&gt;&lt;div style=&quot;color: rgb(171 , 178 , 191)&quot;&gt;&lt;span style=&quot;color: #abb2bf&quot;&gt;}&lt;/span&gt;&lt;/div&gt;&lt;/div&gt;" style="text;whiteSpace=wrap;html=1;" vertex="1" parent="1">
                    <mxGeometry x="1320" y="20" width="640" height="430" as="geometry"/>
                </mxCell>
                <mxCell id="14" style="edgeStyle=orthogonalEdgeStyle;rounded=0;orthogonalLoop=1;jettySize=auto;html=1;exitX=0;exitY=0.75;exitDx=0;exitDy=0;" edge="1" parent="1" source="10" target="13">
                    <mxGeometry relative="1" as="geometry"/>
                </mxCell>
                <mxCell id="10" value="&lt;div style=&quot;color: rgb(171 , 178 , 191) ; background-color: rgb(40 , 44 , 52) ; font-family: &amp;#34;monaco&amp;#34; , &amp;#34;menlo&amp;#34; , &amp;#34;monaco&amp;#34; , &amp;#34;courier new&amp;#34; , monospace ; font-weight: normal ; font-size: 13px ; line-height: 20px&quot;&gt;&lt;div&gt;&lt;span style=&quot;color: #c678dd&quot;&gt;static&lt;/span&gt;&lt;span style=&quot;color: #abb2bf&quot;&gt; &lt;/span&gt;&lt;span style=&quot;color: #c678dd&quot;&gt;int&lt;/span&gt;&lt;span style=&quot;color: #abb2bf&quot;&gt; &lt;/span&gt;&lt;span style=&quot;color: #61afef&quot;&gt;igb_clean_rx_irq&lt;/span&gt;&lt;span style=&quot;color: #abb2bf&quot;&gt;(&lt;/span&gt;&lt;span style=&quot;color: #c678dd&quot;&gt;struct&lt;/span&gt;&lt;span style=&quot;color: #e06c75&quot;&gt; igb_q_vector &lt;/span&gt;&lt;span style=&quot;color: #c678dd&quot;&gt;*&lt;/span&gt;&lt;span style=&quot;color: #e06c75 ; font-style: italic&quot;&gt;q_vector&lt;/span&gt;&lt;span style=&quot;color: #abb2bf&quot;&gt;,&lt;/span&gt;&lt;span style=&quot;color: #e06c75&quot;&gt; &lt;/span&gt;&lt;span style=&quot;color: #c678dd&quot;&gt;const&lt;/span&gt;&lt;span style=&quot;color: #e06c75&quot;&gt; &lt;/span&gt;&lt;span style=&quot;color: #c678dd&quot;&gt;int&lt;/span&gt;&lt;span style=&quot;color: #e06c75&quot;&gt; &lt;/span&gt;&lt;span style=&quot;color: #e06c75 ; font-style: italic&quot;&gt;budget&lt;/span&gt;&lt;span style=&quot;color: #abb2bf&quot;&gt;)&lt;/span&gt;&lt;/div&gt;&lt;div&gt;&lt;span style=&quot;color: #abb2bf&quot;&gt;{&lt;/span&gt;&lt;/div&gt;&lt;div&gt;&lt;span style=&quot;color: #abb2bf&quot;&gt;&lt;/span&gt;&lt;span style=&quot;color: #c678dd&quot;&gt;&amp;nbsp; &amp;nbsp; struct&lt;/span&gt;&lt;span style=&quot;color: #abb2bf&quot;&gt; igb_ring &lt;/span&gt;&lt;span style=&quot;color: #c678dd&quot;&gt;*&lt;/span&gt;&lt;span style=&quot;color: #abb2bf&quot;&gt;rx_ring &lt;/span&gt;&lt;span style=&quot;color: #c678dd&quot;&gt;=&lt;/span&gt;&lt;span style=&quot;color: #abb2bf&quot;&gt; &lt;/span&gt;&lt;span style=&quot;color: #e06c75&quot;&gt;q_vector&lt;/span&gt;&lt;span style=&quot;color: #abb2bf&quot;&gt;-&amp;gt;&lt;/span&gt;&lt;span style=&quot;color: #e06c75&quot;&gt;rx&lt;/span&gt;&lt;span style=&quot;color: #abb2bf&quot;&gt;.&lt;/span&gt;&lt;span style=&quot;color: #e06c75&quot;&gt;ring&lt;/span&gt;&lt;span style=&quot;color: #abb2bf&quot;&gt;;&lt;/span&gt;&lt;/div&gt;&lt;div&gt;&lt;span style=&quot;color: #abb2bf&quot;&gt;&lt;/span&gt;&lt;span style=&quot;color: #c678dd&quot;&gt;&amp;nbsp; &amp;nbsp; struct&lt;/span&gt;&lt;span style=&quot;color: #abb2bf&quot;&gt; sk_buff &lt;/span&gt;&lt;span style=&quot;color: #c678dd&quot;&gt;*&lt;/span&gt;&lt;span style=&quot;color: #abb2bf&quot;&gt;skb &lt;/span&gt;&lt;span style=&quot;color: #c678dd&quot;&gt;=&lt;/span&gt;&lt;span style=&quot;color: #abb2bf&quot;&gt; &lt;/span&gt;&lt;span style=&quot;color: #e06c75&quot;&gt;rx_ring&lt;/span&gt;&lt;span style=&quot;color: #abb2bf&quot;&gt;-&amp;gt;&lt;/span&gt;&lt;span style=&quot;color: #e06c75&quot;&gt;skb&lt;/span&gt;&lt;span style=&quot;color: #abb2bf&quot;&gt;;&lt;/span&gt;&lt;/div&gt;&lt;div&gt;&lt;span style=&quot;color: #abb2bf&quot;&gt;&lt;/span&gt;&lt;span style=&quot;color: #c678dd&quot;&gt;&amp;nbsp; &amp;nbsp; unsigned&lt;/span&gt;&lt;span style=&quot;color: #abb2bf&quot;&gt; &lt;/span&gt;&lt;span style=&quot;color: #c678dd&quot;&gt;int&lt;/span&gt;&lt;span style=&quot;color: #abb2bf&quot;&gt; total_bytes &lt;/span&gt;&lt;span style=&quot;color: #c678dd&quot;&gt;=&lt;/span&gt;&lt;span style=&quot;color: #abb2bf&quot;&gt; &lt;/span&gt;&lt;span style=&quot;color: #d19a66&quot;&gt;0&lt;/span&gt;&lt;span style=&quot;color: #abb2bf&quot;&gt;, total_packets &lt;/span&gt;&lt;span style=&quot;color: #c678dd&quot;&gt;=&lt;/span&gt;&lt;span style=&quot;color: #abb2bf&quot;&gt; &lt;/span&gt;&lt;span style=&quot;color: #d19a66&quot;&gt;0&lt;/span&gt;&lt;span style=&quot;color: #abb2bf&quot;&gt;;&lt;/span&gt;&lt;/div&gt;&lt;div&gt;&lt;span style=&quot;color: #abb2bf&quot;&gt;&amp;nbsp; &amp;nbsp; u16 cleaned_count &lt;/span&gt;&lt;span style=&quot;color: #c678dd&quot;&gt;=&lt;/span&gt;&lt;span style=&quot;color: #abb2bf&quot;&gt; &lt;/span&gt;&lt;span style=&quot;color: #61afef&quot;&gt;igb_desc_unused&lt;/span&gt;&lt;span style=&quot;color: #abb2bf&quot;&gt;(rx_ring);&lt;/span&gt;&lt;/div&gt;&lt;br&gt;&lt;div&gt;&lt;span style=&quot;color: #abb2bf&quot;&gt;&lt;/span&gt;&lt;span style=&quot;color: #c678dd&quot;&gt;&amp;nbsp; &amp;nbsp; while&lt;/span&gt;&lt;span style=&quot;color: #abb2bf&quot;&gt; (&lt;/span&gt;&lt;span style=&quot;color: #61afef&quot;&gt;likely&lt;/span&gt;&lt;span style=&quot;color: #abb2bf&quot;&gt;(total_packets &lt;/span&gt;&lt;span style=&quot;color: #c678dd&quot;&gt;&amp;lt;&lt;/span&gt;&lt;span style=&quot;color: #abb2bf&quot;&gt; budget))&lt;/span&gt;&lt;/div&gt;&lt;div&gt;&lt;span style=&quot;color: #abb2bf&quot;&gt;&amp;nbsp; &amp;nbsp; {&lt;/span&gt;&lt;/div&gt;&lt;div&gt;&lt;span style=&quot;color: #abb2bf&quot;&gt;&lt;/span&gt;&lt;span style=&quot;color: #c678dd&quot;&gt;&amp;nbsp; &amp;nbsp; &amp;nbsp; &amp;nbsp; union&lt;/span&gt;&lt;span style=&quot;color: #abb2bf&quot;&gt; e1000_adv_rx_desc &lt;/span&gt;&lt;span style=&quot;color: #c678dd&quot;&gt;*&lt;/span&gt;&lt;span style=&quot;color: #abb2bf&quot;&gt;rx_desc;&lt;/span&gt;&lt;/div&gt;&lt;div&gt;&lt;span style=&quot;color: #abb2bf&quot;&gt;&lt;/span&gt;&lt;span style=&quot;color: #c678dd&quot;&gt;&amp;nbsp; &amp;nbsp; &amp;nbsp; &amp;nbsp; struct&lt;/span&gt;&lt;span style=&quot;color: #abb2bf&quot;&gt; igb_rx_buffer &lt;/span&gt;&lt;span style=&quot;color: #c678dd&quot;&gt;*&lt;/span&gt;&lt;span style=&quot;color: #abb2bf&quot;&gt;rx_buffer;&lt;/span&gt;&lt;/div&gt;&lt;div&gt;&lt;span style=&quot;color: #abb2bf&quot;&gt;&lt;/span&gt;&lt;span style=&quot;color: #c678dd&quot;&gt;&amp;nbsp; &amp;nbsp; &amp;nbsp; &amp;nbsp; unsigned&lt;/span&gt;&lt;span style=&quot;color: #abb2bf&quot;&gt; &lt;/span&gt;&lt;span style=&quot;color: #c678dd&quot;&gt;int&lt;/span&gt;&lt;span style=&quot;color: #abb2bf&quot;&gt; size;&lt;/span&gt;&lt;/div&gt;&lt;br&gt;&lt;div&gt;&lt;span style=&quot;color: #abb2bf&quot;&gt;&lt;/span&gt;&lt;span style=&quot;color: #7f848e ; font-style: italic&quot;&gt;&amp;nbsp; &amp;nbsp; &amp;nbsp; &amp;nbsp; /* return some buffers to hardware, one at a time is too slow */&lt;/span&gt;&lt;/div&gt;&lt;div&gt;&lt;span style=&quot;color: #abb2bf&quot;&gt;&lt;/span&gt;&lt;span style=&quot;color: #c678dd&quot;&gt;&amp;nbsp; &amp;nbsp; &amp;nbsp; &amp;nbsp; if&lt;/span&gt;&lt;span style=&quot;color: #abb2bf&quot;&gt; (cleaned_count &lt;/span&gt;&lt;span style=&quot;color: #c678dd&quot;&gt;&amp;gt;=&lt;/span&gt;&lt;span style=&quot;color: #abb2bf&quot;&gt; IGB_RX_BUFFER_WRITE)&lt;/span&gt;&lt;/div&gt;&lt;div&gt;&lt;span style=&quot;color: #abb2bf&quot;&gt;&amp;nbsp; &amp;nbsp; &amp;nbsp; &amp;nbsp; {&lt;/span&gt;&lt;/div&gt;&lt;div&gt;&lt;span style=&quot;color: #abb2bf&quot;&gt;&lt;/span&gt;&lt;span style=&quot;color: #61afef&quot;&gt;&amp;nbsp; &amp;nbsp; &amp;nbsp; &amp;nbsp; &amp;nbsp; &amp;nbsp; igb_alloc_rx_buffers&lt;/span&gt;&lt;span style=&quot;color: #abb2bf&quot;&gt;(rx_ring, cleaned_count);&lt;/span&gt;&lt;/div&gt;&lt;div&gt;&lt;span style=&quot;color: #abb2bf&quot;&gt;&amp;nbsp; &amp;nbsp; &amp;nbsp; &amp;nbsp; &amp;nbsp; &amp;nbsp; cleaned_count &lt;/span&gt;&lt;span style=&quot;color: #c678dd&quot;&gt;=&lt;/span&gt;&lt;span style=&quot;color: #abb2bf&quot;&gt; &lt;/span&gt;&lt;span style=&quot;color: #d19a66&quot;&gt;0&lt;/span&gt;&lt;span style=&quot;color: #abb2bf&quot;&gt;;&lt;/span&gt;&lt;/div&gt;&lt;div&gt;&lt;span style=&quot;color: #abb2bf&quot;&gt;&amp;nbsp; &amp;nbsp; &amp;nbsp; &amp;nbsp; }&lt;/span&gt;&lt;/div&gt;&lt;br&gt;&lt;div&gt;&lt;span style=&quot;color: #abb2bf&quot;&gt;&amp;nbsp; &amp;nbsp; &amp;nbsp; &amp;nbsp; rx_desc &lt;/span&gt;&lt;span style=&quot;color: #c678dd&quot;&gt;=&lt;/span&gt;&lt;span style=&quot;color: #abb2bf&quot;&gt; &lt;/span&gt;&lt;span style=&quot;color: #61afef&quot;&gt;IGB_RX_DESC&lt;/span&gt;&lt;span style=&quot;color: #abb2bf&quot;&gt;(rx_ring, &lt;/span&gt;&lt;span style=&quot;color: #e06c75&quot;&gt;rx_ring&lt;/span&gt;&lt;span style=&quot;color: #abb2bf&quot;&gt;-&amp;gt;&lt;/span&gt;&lt;span style=&quot;color: #e06c75&quot;&gt;next_to_clean&lt;/span&gt;&lt;span style=&quot;color: #abb2bf&quot;&gt;);&lt;/span&gt;&lt;/div&gt;&lt;div&gt;&lt;span style=&quot;color: #abb2bf&quot;&gt;&amp;nbsp; &amp;nbsp; &amp;nbsp; &amp;nbsp; size &lt;/span&gt;&lt;span style=&quot;color: #c678dd&quot;&gt;=&lt;/span&gt;&lt;span style=&quot;color: #abb2bf&quot;&gt; &lt;/span&gt;&lt;span style=&quot;color: #61afef&quot;&gt;le16_to_cpu&lt;/span&gt;&lt;span style=&quot;color: #abb2bf&quot;&gt;(&lt;/span&gt;&lt;span style=&quot;color: #e06c75&quot;&gt;rx_desc&lt;/span&gt;&lt;span style=&quot;color: #abb2bf&quot;&gt;-&amp;gt;&lt;/span&gt;&lt;span style=&quot;color: #e06c75&quot;&gt;wb&lt;/span&gt;&lt;span style=&quot;color: #abb2bf&quot;&gt;.&lt;/span&gt;&lt;span style=&quot;color: #e06c75&quot;&gt;upper&lt;/span&gt;&lt;span style=&quot;color: #abb2bf&quot;&gt;.&lt;/span&gt;&lt;span style=&quot;color: #e06c75&quot;&gt;length&lt;/span&gt;&lt;span style=&quot;color: #abb2bf&quot;&gt;);&lt;/span&gt;&lt;/div&gt;&lt;div&gt;&lt;span style=&quot;color: #abb2bf&quot;&gt;&lt;/span&gt;&lt;span style=&quot;color: #c678dd&quot;&gt;&amp;nbsp; &amp;nbsp; &amp;nbsp; &amp;nbsp; if&lt;/span&gt;&lt;span style=&quot;color: #abb2bf&quot;&gt; (&lt;/span&gt;&lt;span style=&quot;color: #56b6c2&quot;&gt;!&lt;/span&gt;&lt;span style=&quot;color: #abb2bf&quot;&gt;size)&lt;/span&gt;&lt;/div&gt;&lt;div&gt;&lt;span style=&quot;color: #abb2bf&quot;&gt;&lt;/span&gt;&lt;span style=&quot;color: #c678dd&quot;&gt;&amp;nbsp; &amp;nbsp; &amp;nbsp; &amp;nbsp; &amp;nbsp; &amp;nbsp; break&lt;/span&gt;&lt;span style=&quot;color: #abb2bf&quot;&gt;;&lt;/span&gt;&lt;/div&gt;&lt;br&gt;&lt;div&gt;&lt;span style=&quot;color: #abb2bf&quot;&gt;&lt;/span&gt;&lt;span style=&quot;color: #7f848e ; font-style: italic&quot;&gt;&amp;nbsp; &amp;nbsp; &amp;nbsp; &amp;nbsp; /* This memory barrier is needed to keep us from reading&lt;/span&gt;&lt;/div&gt;&lt;div&gt;&lt;span style=&quot;color: #7f848e ; font-style: italic&quot;&gt;&amp;nbsp; &amp;nbsp; &amp;nbsp; &amp;nbsp; &amp;nbsp;* any other fields out of the rx_desc until we know the&lt;/span&gt;&lt;/div&gt;&lt;div&gt;&lt;span style=&quot;color: #7f848e ; font-style: italic&quot;&gt;&amp;nbsp; &amp;nbsp; &amp;nbsp; &amp;nbsp; &amp;nbsp;* descriptor has been written back&lt;/span&gt;&lt;/div&gt;&lt;div&gt;&lt;span style=&quot;color: #7f848e ; font-style: italic&quot;&gt;&amp;nbsp; &amp;nbsp; &amp;nbsp; &amp;nbsp; &amp;nbsp;*/&lt;/span&gt;&lt;/div&gt;&lt;div&gt;&lt;span style=&quot;color: #abb2bf&quot;&gt;&lt;/span&gt;&lt;span style=&quot;color: #61afef&quot;&gt;&amp;nbsp; &amp;nbsp; &amp;nbsp; &amp;nbsp; dma_rmb&lt;/span&gt;&lt;span style=&quot;color: #abb2bf&quot;&gt;();&lt;/span&gt;&lt;/div&gt;&lt;br&gt;&lt;div&gt;&lt;span style=&quot;color: #abb2bf&quot;&gt;&amp;nbsp; &amp;nbsp; &amp;nbsp; &amp;nbsp; rx_buffer &lt;/span&gt;&lt;span style=&quot;color: #c678dd&quot;&gt;=&lt;/span&gt;&lt;span style=&quot;color: #abb2bf&quot;&gt; &lt;/span&gt;&lt;span style=&quot;color: #61afef&quot;&gt;igb_get_rx_buffer&lt;/span&gt;&lt;span style=&quot;color: #abb2bf&quot;&gt;(rx_ring, size);&lt;/span&gt;&lt;/div&gt;&lt;br&gt;&lt;div&gt;&lt;span style=&quot;color: #abb2bf&quot;&gt;&lt;/span&gt;&lt;span style=&quot;color: #7f848e ; font-style: italic&quot;&gt;&amp;nbsp; &amp;nbsp; &amp;nbsp; &amp;nbsp; /* retrieve a buffer from the ring */&lt;/span&gt;&lt;/div&gt;&lt;div&gt;&lt;span style=&quot;color: #abb2bf&quot;&gt;&lt;/span&gt;&lt;span style=&quot;color: #c678dd&quot;&gt;&amp;nbsp; &amp;nbsp; &amp;nbsp; &amp;nbsp; if&lt;/span&gt;&lt;span style=&quot;color: #abb2bf&quot;&gt; (skb)&lt;/span&gt;&lt;/div&gt;&lt;div&gt;&lt;span style=&quot;color: #abb2bf&quot;&gt;&lt;/span&gt;&lt;span style=&quot;color: #61afef&quot;&gt;&amp;nbsp; &amp;nbsp; &amp;nbsp; &amp;nbsp; &amp;nbsp; &amp;nbsp; igb_add_rx_frag&lt;/span&gt;&lt;span style=&quot;color: #abb2bf&quot;&gt;(rx_ring, rx_buffer, skb, size);&lt;/span&gt;&lt;/div&gt;&lt;div&gt;&lt;span style=&quot;color: #abb2bf&quot;&gt;&lt;/span&gt;&lt;span style=&quot;color: #c678dd&quot;&gt;&amp;nbsp; &amp;nbsp; &amp;nbsp; &amp;nbsp; else&lt;/span&gt;&lt;span style=&quot;color: #abb2bf&quot;&gt; &lt;/span&gt;&lt;span style=&quot;color: #c678dd&quot;&gt;if&lt;/span&gt;&lt;span style=&quot;color: #abb2bf&quot;&gt; (&lt;/span&gt;&lt;span style=&quot;color: #61afef&quot;&gt;ring_uses_build_skb&lt;/span&gt;&lt;span style=&quot;color: #abb2bf&quot;&gt;(rx_ring))&lt;/span&gt;&lt;/div&gt;&lt;div&gt;&lt;span style=&quot;color: #abb2bf&quot;&gt;&amp;nbsp; &amp;nbsp; &amp;nbsp; &amp;nbsp; &amp;nbsp; &amp;nbsp; skb &lt;/span&gt;&lt;span style=&quot;color: #c678dd&quot;&gt;=&lt;/span&gt;&lt;span style=&quot;color: #abb2bf&quot;&gt; &lt;/span&gt;&lt;span style=&quot;color: #61afef&quot;&gt;igb_build_skb&lt;/span&gt;&lt;span style=&quot;color: #abb2bf&quot;&gt;(rx_ring, rx_buffer, rx_desc, size);&lt;/span&gt;&lt;/div&gt;&lt;div&gt;&lt;span style=&quot;color: #abb2bf&quot;&gt;&lt;/span&gt;&lt;span style=&quot;color: #c678dd&quot;&gt;&amp;nbsp; &amp;nbsp; &amp;nbsp; &amp;nbsp; else&lt;/span&gt;&lt;/div&gt;&lt;div&gt;&lt;span style=&quot;color: #abb2bf&quot;&gt;&amp;nbsp; &amp;nbsp; &amp;nbsp; &amp;nbsp; &amp;nbsp; &amp;nbsp; skb &lt;/span&gt;&lt;span style=&quot;color: #c678dd&quot;&gt;=&lt;/span&gt;&lt;span style=&quot;color: #abb2bf&quot;&gt; &lt;/span&gt;&lt;span style=&quot;color: #61afef&quot;&gt;igb_construct_skb&lt;/span&gt;&lt;span style=&quot;color: #abb2bf&quot;&gt;(rx_ring, rx_buffer,&lt;/span&gt;rx_desc, size);&lt;/div&gt;&lt;br&gt;&lt;div&gt;&lt;span style=&quot;color: #abb2bf&quot;&gt;&lt;/span&gt;&lt;span style=&quot;color: #7f848e ; font-style: italic&quot;&gt;&amp;nbsp; &amp;nbsp; &amp;nbsp; &amp;nbsp; /* exit if we failed to retrieve a buffer */&lt;/span&gt;&lt;/div&gt;&lt;div&gt;&lt;span style=&quot;color: #abb2bf&quot;&gt;&lt;/span&gt;&lt;span style=&quot;color: #c678dd&quot;&gt;&amp;nbsp; &amp;nbsp; &amp;nbsp; &amp;nbsp; if&lt;/span&gt;&lt;span style=&quot;color: #abb2bf&quot;&gt; (&lt;/span&gt;&lt;span style=&quot;color: #56b6c2&quot;&gt;!&lt;/span&gt;&lt;span style=&quot;color: #abb2bf&quot;&gt;skb)&lt;/span&gt;&lt;/div&gt;&lt;div&gt;&lt;span style=&quot;color: #abb2bf&quot;&gt;&amp;nbsp; &amp;nbsp; &amp;nbsp; &amp;nbsp; {&lt;/span&gt;&lt;/div&gt;&lt;div&gt;&lt;span style=&quot;color: #abb2bf&quot;&gt;&lt;/span&gt;&lt;span style=&quot;color: #e06c75&quot;&gt;&amp;nbsp; &amp;nbsp; &amp;nbsp; &amp;nbsp; &amp;nbsp; &amp;nbsp; rx_ring&lt;/span&gt;&lt;span style=&quot;color: #abb2bf&quot;&gt;-&amp;gt;&lt;/span&gt;&lt;span style=&quot;color: #e06c75&quot;&gt;rx_stats&lt;/span&gt;&lt;span style=&quot;color: #abb2bf&quot;&gt;.&lt;/span&gt;&lt;span style=&quot;color: #e06c75&quot;&gt;alloc_failed&lt;/span&gt;&lt;span style=&quot;color: #c678dd&quot;&gt;++&lt;/span&gt;&lt;span style=&quot;color: #abb2bf&quot;&gt;;&lt;/span&gt;&lt;/div&gt;&lt;div&gt;&lt;span style=&quot;color: #abb2bf&quot;&gt;&lt;/span&gt;&lt;span style=&quot;color: #e06c75&quot;&gt;&amp;nbsp; &amp;nbsp; &amp;nbsp; &amp;nbsp; &amp;nbsp; &amp;nbsp; rx_buffer&lt;/span&gt;&lt;span style=&quot;color: #abb2bf&quot;&gt;-&amp;gt;&lt;/span&gt;&lt;span style=&quot;color: #e06c75&quot;&gt;pagecnt_bias&lt;/span&gt;&lt;span style=&quot;color: #c678dd&quot;&gt;++&lt;/span&gt;&lt;span style=&quot;color: #abb2bf&quot;&gt;;&lt;/span&gt;&lt;/div&gt;&lt;div&gt;&lt;span style=&quot;color: #abb2bf&quot;&gt;&lt;/span&gt;&lt;span style=&quot;color: #c678dd&quot;&gt;&amp;nbsp; &amp;nbsp; &amp;nbsp; &amp;nbsp; &amp;nbsp; &amp;nbsp; break&lt;/span&gt;&lt;span style=&quot;color: #abb2bf&quot;&gt;;&lt;/span&gt;&lt;/div&gt;&lt;div&gt;&lt;span style=&quot;color: #abb2bf&quot;&gt;&amp;nbsp; &amp;nbsp; &amp;nbsp; &amp;nbsp; }&lt;/span&gt;&lt;/div&gt;&lt;br&gt;&lt;div&gt;&lt;span style=&quot;color: #abb2bf&quot;&gt;&lt;/span&gt;&lt;span style=&quot;color: #61afef&quot;&gt;&amp;nbsp; &amp;nbsp; &amp;nbsp; &amp;nbsp; igb_put_rx_buffer&lt;/span&gt;&lt;span style=&quot;color: #abb2bf&quot;&gt;(rx_ring, rx_buffer);&lt;/span&gt;&lt;/div&gt;&lt;div&gt;&lt;span style=&quot;color: #abb2bf&quot;&gt;&amp;nbsp; &amp;nbsp; &amp;nbsp; &amp;nbsp; cleaned_count&lt;/span&gt;&lt;span style=&quot;color: #c678dd&quot;&gt;++&lt;/span&gt;&lt;span style=&quot;color: #abb2bf&quot;&gt;;&lt;/span&gt;&lt;/div&gt;&lt;br&gt;&lt;div&gt;&lt;span style=&quot;color: #abb2bf&quot;&gt;&lt;/span&gt;&lt;span style=&quot;color: #7f848e ; font-style: italic&quot;&gt;&amp;nbsp; &amp;nbsp; &amp;nbsp; &amp;nbsp; /* fetch next buffer in frame if non-eop */&lt;/span&gt;&lt;/div&gt;&lt;div&gt;&lt;span style=&quot;color: #abb2bf&quot;&gt;&lt;/span&gt;&lt;span style=&quot;color: #c678dd&quot;&gt;&amp;nbsp; &amp;nbsp; &amp;nbsp; &amp;nbsp; if&lt;/span&gt;&lt;span style=&quot;color: #abb2bf&quot;&gt; (&lt;/span&gt;&lt;span style=&quot;color: #61afef&quot;&gt;igb_is_non_eop&lt;/span&gt;&lt;span style=&quot;color: #abb2bf&quot;&gt;(rx_ring, rx_desc))&lt;/span&gt;&lt;/div&gt;&lt;div&gt;&lt;span style=&quot;color: #abb2bf&quot;&gt;&lt;/span&gt;&lt;span style=&quot;color: #c678dd&quot;&gt;&amp;nbsp; &amp;nbsp; &amp;nbsp; &amp;nbsp; &amp;nbsp; &amp;nbsp; continue&lt;/span&gt;&lt;span style=&quot;color: #abb2bf&quot;&gt;;&lt;/span&gt;&lt;/div&gt;&lt;br&gt;&lt;div&gt;&lt;span style=&quot;color: #abb2bf&quot;&gt;&lt;/span&gt;&lt;span style=&quot;color: #7f848e ; font-style: italic&quot;&gt;&amp;nbsp; &amp;nbsp; &amp;nbsp; &amp;nbsp; /* verify the packet layout is correct */&lt;/span&gt;&lt;/div&gt;&lt;div&gt;&lt;span style=&quot;color: #abb2bf&quot;&gt;&lt;/span&gt;&lt;span style=&quot;color: #c678dd&quot;&gt;&amp;nbsp; &amp;nbsp; &amp;nbsp; &amp;nbsp; if&lt;/span&gt;&lt;span style=&quot;color: #abb2bf&quot;&gt; (&lt;/span&gt;&lt;span style=&quot;color: #61afef&quot;&gt;igb_cleanup_headers&lt;/span&gt;&lt;span style=&quot;color: #abb2bf&quot;&gt;(rx_ring, rx_desc, skb))&lt;/span&gt;&lt;/div&gt;&lt;div&gt;&lt;span style=&quot;color: #abb2bf&quot;&gt;&amp;nbsp; &amp;nbsp; &amp;nbsp; &amp;nbsp; {&lt;/span&gt;&lt;/div&gt;&lt;div&gt;&lt;span style=&quot;color: #abb2bf&quot;&gt;&amp;nbsp; &amp;nbsp; &amp;nbsp; &amp;nbsp; &amp;nbsp; &amp;nbsp; skb &lt;/span&gt;&lt;span style=&quot;color: #c678dd&quot;&gt;=&lt;/span&gt;&lt;span style=&quot;color: #abb2bf&quot;&gt; &lt;/span&gt;&lt;span style=&quot;color: #d19a66&quot;&gt;NULL&lt;/span&gt;&lt;span style=&quot;color: #abb2bf&quot;&gt;;&lt;/span&gt;&lt;/div&gt;&lt;div&gt;&lt;span style=&quot;color: #abb2bf&quot;&gt;&lt;/span&gt;&lt;span style=&quot;color: #c678dd&quot;&gt;&amp;nbsp; &amp;nbsp; &amp;nbsp; &amp;nbsp; &amp;nbsp; &amp;nbsp; continue&lt;/span&gt;&lt;span style=&quot;color: #abb2bf&quot;&gt;;&lt;/span&gt;&lt;/div&gt;&lt;div&gt;&lt;span style=&quot;color: #abb2bf&quot;&gt;&amp;nbsp; &amp;nbsp; &amp;nbsp; &amp;nbsp; }&lt;/span&gt;&lt;/div&gt;&lt;div&gt;&lt;span style=&quot;color: #abb2bf&quot;&gt;&lt;/span&gt;&lt;span style=&quot;color: #7f848e ; font-style: italic&quot;&gt;&amp;nbsp; &amp;nbsp; &amp;nbsp; &amp;nbsp; /* probably a little skewed due to removing CRC */&lt;/span&gt;&lt;/div&gt;&lt;div&gt;&lt;span style=&quot;color: #abb2bf&quot;&gt;&amp;nbsp; &amp;nbsp; &amp;nbsp; &amp;nbsp; total_bytes &lt;/span&gt;&lt;span style=&quot;color: #c678dd&quot;&gt;+=&lt;/span&gt;&lt;span style=&quot;color: #abb2bf&quot;&gt; &lt;/span&gt;&lt;span style=&quot;color: #e06c75&quot;&gt;skb&lt;/span&gt;&lt;span style=&quot;color: #abb2bf&quot;&gt;-&amp;gt;&lt;/span&gt;&lt;span style=&quot;color: #e06c75&quot;&gt;len&lt;/span&gt;&lt;span style=&quot;color: #abb2bf&quot;&gt;;&lt;/span&gt;&lt;/div&gt;&lt;br&gt;&lt;div&gt;&lt;span style=&quot;color: #abb2bf&quot;&gt;&lt;/span&gt;&lt;span style=&quot;color: #7f848e ; font-style: italic&quot;&gt;&amp;nbsp; &amp;nbsp; &amp;nbsp; &amp;nbsp; //xj:这里会设置skb-&amp;gt;protocol&lt;/span&gt;&lt;/div&gt;&lt;div&gt;&lt;span style=&quot;color: #abb2bf&quot;&gt;&lt;/span&gt;&lt;span style=&quot;color: #7f848e ; font-style: italic&quot;&gt;&amp;nbsp; &amp;nbsp; &amp;nbsp; &amp;nbsp; /* populate checksum, timestamp, VLAN, and protocol */&lt;/span&gt;&lt;/div&gt;&lt;div&gt;&lt;span style=&quot;color: #abb2bf&quot;&gt;&lt;/span&gt;&lt;span style=&quot;color: #61afef&quot;&gt;&amp;nbsp; &amp;nbsp; &amp;nbsp; &amp;nbsp; igb_process_skb_fields&lt;/span&gt;&lt;span style=&quot;color: #abb2bf&quot;&gt;(rx_ring, rx_desc, skb);&lt;/span&gt;&lt;/div&gt;&lt;div&gt;&lt;span style=&quot;color: #abb2bf&quot;&gt;&lt;/span&gt;&lt;span style=&quot;color: #7f848e ; font-style: italic&quot;&gt;&amp;nbsp; &amp;nbsp; &amp;nbsp; &amp;nbsp; //xj:调用netdev模块的napi_gro_receive，处理读取的sk_buffer&lt;/span&gt;&lt;/div&gt;&lt;div&gt;&lt;span style=&quot;color: #abb2bf&quot;&gt;&lt;/span&gt;&lt;span style=&quot;color: #61afef&quot;&gt;&amp;nbsp; &amp;nbsp; &amp;nbsp; &amp;nbsp; napi_gro_receive&lt;/span&gt;&lt;span style=&quot;color: #abb2bf&quot;&gt;(&lt;/span&gt;&lt;span style=&quot;color: #c678dd&quot;&gt;&amp;amp;&lt;/span&gt;&lt;span style=&quot;color: #e06c75&quot;&gt;q_vector&lt;/span&gt;&lt;span style=&quot;color: #abb2bf&quot;&gt;-&amp;gt;&lt;/span&gt;&lt;span style=&quot;color: #e06c75&quot;&gt;napi&lt;/span&gt;&lt;span style=&quot;color: #abb2bf&quot;&gt;, skb);&lt;/span&gt;&lt;/div&gt;&lt;div&gt;&lt;span style=&quot;color: #abb2bf&quot;&gt;&amp;nbsp; &amp;nbsp; &amp;nbsp; &amp;nbsp; skb &lt;/span&gt;&lt;span style=&quot;color: #c678dd&quot;&gt;=&lt;/span&gt;&lt;span style=&quot;color: #abb2bf&quot;&gt; &lt;/span&gt;&lt;span style=&quot;color: #d19a66&quot;&gt;NULL&lt;/span&gt;&lt;span style=&quot;color: #abb2bf&quot;&gt;;&lt;/span&gt;&lt;/div&gt;&lt;div&gt;&lt;span style=&quot;color: #abb2bf&quot;&gt;&amp;nbsp; &amp;nbsp; &amp;nbsp; &amp;nbsp; total_packets&lt;/span&gt;&lt;span style=&quot;color: #c678dd&quot;&gt;++&lt;/span&gt;&lt;span style=&quot;color: #abb2bf&quot;&gt;;&lt;/span&gt;&lt;/div&gt;&lt;div&gt;&lt;span style=&quot;color: #abb2bf&quot;&gt;&amp;nbsp; &amp;nbsp; }&lt;/span&gt;&lt;/div&gt;&lt;br&gt;&lt;div&gt;&lt;span style=&quot;color: #abb2bf&quot;&gt;&lt;/span&gt;&lt;span style=&quot;color: #7f848e ; font-style: italic&quot;&gt;&amp;nbsp; &amp;nbsp; /* place incomplete frames back on ring for completion */&lt;/span&gt;&lt;/div&gt;&lt;div&gt;&lt;span style=&quot;color: #abb2bf&quot;&gt;&lt;/span&gt;&lt;span style=&quot;color: #e06c75&quot;&gt;&amp;nbsp; &amp;nbsp; rx_ring&lt;/span&gt;&lt;span style=&quot;color: #abb2bf&quot;&gt;-&amp;gt;&lt;/span&gt;&lt;span style=&quot;color: #e06c75&quot;&gt;skb&lt;/span&gt;&lt;span style=&quot;color: #abb2bf&quot;&gt; &lt;/span&gt;&lt;span style=&quot;color: #c678dd&quot;&gt;=&lt;/span&gt;&lt;span style=&quot;color: #abb2bf&quot;&gt; skb;&lt;/span&gt;&lt;/div&gt;&lt;br&gt;&lt;div&gt;&lt;span style=&quot;color: #abb2bf&quot;&gt;&lt;/span&gt;&lt;span style=&quot;color: #61afef&quot;&gt;&amp;nbsp; &amp;nbsp; ...&lt;/span&gt;&lt;/div&gt;&lt;div&gt;&lt;span style=&quot;color: #abb2bf&quot;&gt;&lt;/span&gt;&lt;span style=&quot;color: #c678dd&quot;&gt;&amp;nbsp; &amp;nbsp; return&lt;/span&gt;&lt;span style=&quot;color: #abb2bf&quot;&gt; total_packets;&lt;/span&gt;&lt;/div&gt;&lt;div&gt;&lt;span style=&quot;color: #abb2bf&quot;&gt;}&lt;/span&gt;&lt;/div&gt;&lt;/div&gt;" style="text;whiteSpace=wrap;html=1;" vertex="1" parent="1">
                    <mxGeometry x="2080" y="20" width="600" height="1610" as="geometry"/>
                </mxCell>
                <mxCell id="16" style="edgeStyle=orthogonalEdgeStyle;rounded=0;orthogonalLoop=1;jettySize=auto;html=1;exitX=0.75;exitY=1;exitDx=0;exitDy=0;entryX=0;entryY=0.5;entryDx=0;entryDy=0;" edge="1" parent="1" source="13" target="15">
                    <mxGeometry relative="1" as="geometry"/>
                </mxCell>
                <mxCell id="18" style="edgeStyle=orthogonalEdgeStyle;rounded=0;orthogonalLoop=1;jettySize=auto;html=1;exitX=0.5;exitY=1;exitDx=0;exitDy=0;" edge="1" parent="1" source="13" target="17">
                    <mxGeometry relative="1" as="geometry"/>
                </mxCell>
                <mxCell id="13" value="&lt;div style=&quot;color: rgb(171 , 178 , 191) ; background-color: rgb(40 , 44 , 52) ; font-family: &amp;#34;monaco&amp;#34; , &amp;#34;menlo&amp;#34; , &amp;#34;monaco&amp;#34; , &amp;#34;courier new&amp;#34; , monospace ; font-weight: normal ; font-size: 13px ; line-height: 20px&quot;&gt;&lt;div&gt;&lt;span style=&quot;color: #56b6c2&quot;&gt;gro_result_t&lt;/span&gt;&lt;span style=&quot;color: #abb2bf&quot;&gt; &lt;/span&gt;&lt;span style=&quot;color: #61afef&quot;&gt;napi_gro_receive&lt;/span&gt;&lt;span style=&quot;color: #abb2bf&quot;&gt;(&lt;/span&gt;&lt;span style=&quot;color: #c678dd&quot;&gt;struct&lt;/span&gt;&lt;span style=&quot;color: #e06c75&quot;&gt; napi_struct &lt;/span&gt;&lt;span style=&quot;color: #c678dd&quot;&gt;*&lt;/span&gt;&lt;span style=&quot;color: #e06c75 ; font-style: italic&quot;&gt;napi&lt;/span&gt;&lt;span style=&quot;color: #abb2bf&quot;&gt;,&lt;/span&gt;&lt;span style=&quot;color: #e06c75&quot;&gt;&amp;nbsp;&lt;/span&gt;&lt;/div&gt;&lt;div&gt;&lt;span style=&quot;color: #c678dd&quot;&gt;&amp;nbsp; &amp;nbsp; &amp;nbsp; &amp;nbsp; &amp;nbsp; &amp;nbsp; &amp;nbsp; &amp;nbsp; &amp;nbsp; &amp;nbsp; &amp;nbsp; &amp;nbsp; &amp;nbsp; &amp;nbsp; &amp;nbsp; struct&lt;/span&gt;&lt;span style=&quot;color: #e06c75&quot;&gt; sk_buff &lt;/span&gt;&lt;span style=&quot;color: #c678dd&quot;&gt;*&lt;/span&gt;&lt;span style=&quot;color: #e06c75 ; font-style: italic&quot;&gt;skb&lt;/span&gt;&lt;span style=&quot;color: #abb2bf&quot;&gt;)&lt;/span&gt;&lt;/div&gt;&lt;div&gt;&lt;span style=&quot;color: #abb2bf&quot;&gt;{&lt;/span&gt;&lt;/div&gt;&lt;div&gt;&lt;span style=&quot;color: rgb(198 , 120 , 221)&quot;&gt;&amp;nbsp; &amp;nbsp; ...&lt;/span&gt;&lt;/div&gt;&lt;div&gt;&lt;span style=&quot;color: rgb(198 , 120 , 221)&quot;&gt;&amp;nbsp; &amp;nbsp; return&lt;/span&gt; &lt;span style=&quot;color: rgb(97 , 175 , 239)&quot;&gt;napi_skb_finish&lt;/span&gt;(&lt;span style=&quot;color: rgb(97 , 175 , 239)&quot;&gt;dev_gro_receive&lt;/span&gt;(napi, skb), skb);&lt;br&gt;&lt;/div&gt;&lt;div&gt;&lt;span style=&quot;color: #abb2bf&quot;&gt;}&lt;/span&gt;&lt;/div&gt;&lt;/div&gt;" style="text;whiteSpace=wrap;html=1;" vertex="1" parent="1">
                    <mxGeometry x="620" y="819" width="480" height="130" as="geometry"/>
                </mxCell>
                <mxCell id="15" value="&lt;div style=&quot;color: rgb(171 , 178 , 191) ; background-color: rgb(40 , 44 , 52) ; font-family: &amp;#34;monaco&amp;#34; , &amp;#34;menlo&amp;#34; , &amp;#34;monaco&amp;#34; , &amp;#34;courier new&amp;#34; , monospace ; font-size: 13px ; line-height: 20px&quot;&gt;&lt;span style=&quot;color: #61afef&quot;&gt;dev_gro_receive&lt;/span&gt;&lt;/div&gt;" style="shape=process;whiteSpace=wrap;html=1;backgroundOutline=1;size=0.03571428571428571;" vertex="1" parent="1">
                    <mxGeometry x="1050" y="990" width="150" height="30" as="geometry"/>
                </mxCell>
                <mxCell id="20" style="edgeStyle=orthogonalEdgeStyle;rounded=0;orthogonalLoop=1;jettySize=auto;html=1;exitX=0.5;exitY=1;exitDx=0;exitDy=0;entryX=0.5;entryY=0;entryDx=0;entryDy=0;" edge="1" parent="1" source="17" target="19">
                    <mxGeometry relative="1" as="geometry"/>
                </mxCell>
                <mxCell id="17" value="&lt;div style=&quot;color: rgb(171 , 178 , 191) ; background-color: rgb(40 , 44 , 52) ; font-family: &amp;#34;monaco&amp;#34; , &amp;#34;menlo&amp;#34; , &amp;#34;monaco&amp;#34; , &amp;#34;courier new&amp;#34; , monospace ; font-size: 13px ; line-height: 20px&quot;&gt;&lt;span style=&quot;color: rgb(97 , 175 , 239) ; text-align: left&quot;&gt;napi_skb_finish&lt;/span&gt;&lt;br&gt;&lt;/div&gt;" style="shape=process;whiteSpace=wrap;html=1;backgroundOutline=1;size=0.03571428571428571;" vertex="1" parent="1">
                    <mxGeometry x="785" y="990" width="150" height="30" as="geometry"/>
                </mxCell>
                <mxCell id="22" style="edgeStyle=orthogonalEdgeStyle;rounded=0;orthogonalLoop=1;jettySize=auto;html=1;exitX=0.5;exitY=1;exitDx=0;exitDy=0;entryX=0.5;entryY=0;entryDx=0;entryDy=0;" edge="1" parent="1" source="19" target="21">
                    <mxGeometry relative="1" as="geometry"/>
                </mxCell>
                <mxCell id="19" value="&lt;div style=&quot;color: rgb(171 , 178 , 191) ; background-color: rgb(40 , 44 , 52) ; font-family: &amp;#34;monaco&amp;#34; , &amp;#34;menlo&amp;#34; , &amp;#34;monaco&amp;#34; , &amp;#34;courier new&amp;#34; , monospace ; font-size: 13px ; line-height: 20px&quot;&gt;&lt;div style=&quot;font-family: &amp;#34;monaco&amp;#34; , &amp;#34;menlo&amp;#34; , &amp;#34;monaco&amp;#34; , &amp;#34;courier new&amp;#34; , monospace ; line-height: 20px&quot;&gt;&lt;span style=&quot;color: #61afef&quot;&gt;netif_receive_skb_internal&lt;/span&gt;&lt;/div&gt;&lt;/div&gt;" style="shape=process;whiteSpace=wrap;html=1;backgroundOutline=1;size=0.03571428571428571;" vertex="1" parent="1">
                    <mxGeometry x="742.5" y="1060" width="235" height="30" as="geometry"/>
                </mxCell>
                <mxCell id="24" style="edgeStyle=orthogonalEdgeStyle;rounded=0;orthogonalLoop=1;jettySize=auto;html=1;exitX=0.5;exitY=1;exitDx=0;exitDy=0;" edge="1" parent="1" source="21" target="25">
                    <mxGeometry relative="1" as="geometry">
                        <mxPoint x="860" y="1200" as="targetPoint"/>
                    </mxGeometry>
                </mxCell>
                <mxCell id="21" value="&lt;div style=&quot;color: rgb(171 , 178 , 191) ; background-color: rgb(40 , 44 , 52) ; font-family: &amp;#34;monaco&amp;#34; , &amp;#34;menlo&amp;#34; , &amp;#34;monaco&amp;#34; , &amp;#34;courier new&amp;#34; , monospace ; font-size: 13px ; line-height: 20px&quot;&gt;&lt;div style=&quot;font-family: &amp;#34;monaco&amp;#34; , &amp;#34;menlo&amp;#34; , &amp;#34;monaco&amp;#34; , &amp;#34;courier new&amp;#34; , monospace ; line-height: 20px&quot;&gt;&lt;div style=&quot;font-family: &amp;#34;monaco&amp;#34; , &amp;#34;menlo&amp;#34; , &amp;#34;monaco&amp;#34; , &amp;#34;courier new&amp;#34; , monospace ; line-height: 20px&quot;&gt;&lt;span style=&quot;color: #61afef&quot;&gt;__netif_receive_skb&lt;/span&gt;&lt;/div&gt;&lt;/div&gt;&lt;/div&gt;" style="shape=process;whiteSpace=wrap;html=1;backgroundOutline=1;size=0.03571428571428571;" vertex="1" parent="1">
                    <mxGeometry x="742.5" y="1130" width="235" height="30" as="geometry"/>
                </mxCell>
                <mxCell id="28" style="edgeStyle=orthogonalEdgeStyle;rounded=0;orthogonalLoop=1;jettySize=auto;html=1;exitX=0;exitY=0.5;exitDx=0;exitDy=0;entryX=0.538;entryY=1.075;entryDx=0;entryDy=0;entryPerimeter=0;" edge="1" parent="1" source="25" target="27">
                    <mxGeometry relative="1" as="geometry">
                        <mxPoint x="230" y="1750" as="targetPoint"/>
                        <Array as="points">
                            <mxPoint x="209" y="1815"/>
                        </Array>
                    </mxGeometry>
                </mxCell>
                <mxCell id="25" value="&lt;div style=&quot;color: rgb(171 , 178 , 191) ; background-color: rgb(40 , 44 , 52) ; font-family: &amp;#34;monaco&amp;#34; , &amp;#34;menlo&amp;#34; , &amp;#34;monaco&amp;#34; , &amp;#34;courier new&amp;#34; , monospace ; font-weight: normal ; font-size: 13px ; line-height: 20px&quot;&gt;&lt;div&gt;&lt;span style=&quot;color: #c678dd&quot;&gt;static&lt;/span&gt;&lt;span style=&quot;color: #abb2bf&quot;&gt; &lt;/span&gt;&lt;span style=&quot;color: #c678dd&quot;&gt;int&lt;/span&gt;&lt;span style=&quot;color: #abb2bf&quot;&gt; &lt;/span&gt;&lt;span style=&quot;color: #61afef&quot;&gt;__netif_receive_skb_core&lt;/span&gt;&lt;span style=&quot;color: #abb2bf&quot;&gt;(&lt;/span&gt;&lt;span style=&quot;color: #c678dd&quot;&gt;struct&lt;/span&gt;&lt;span style=&quot;color: #e06c75&quot;&gt; sk_buff &lt;/span&gt;&lt;span style=&quot;color: #c678dd&quot;&gt;*&lt;/span&gt;&lt;span style=&quot;color: #e06c75 ; font-style: italic&quot;&gt;skb&lt;/span&gt;&lt;span style=&quot;color: #abb2bf&quot;&gt;,&lt;/span&gt;&lt;span style=&quot;color: #e06c75&quot;&gt; &lt;/span&gt;&lt;span style=&quot;color: #c678dd&quot;&gt;bool&lt;/span&gt;&lt;span style=&quot;color: #e06c75&quot;&gt; &lt;/span&gt;&lt;span style=&quot;color: #e06c75 ; font-style: italic&quot;&gt;pfmemalloc&lt;/span&gt;&lt;span style=&quot;color: #abb2bf&quot;&gt;)&lt;/span&gt;&lt;/div&gt;&lt;div&gt;&lt;span style=&quot;color: #abb2bf&quot;&gt;{&lt;/span&gt;&lt;/div&gt;&lt;div&gt;&lt;span style=&quot;color: #abb2bf&quot;&gt;&lt;/span&gt;&lt;span style=&quot;color: #c678dd&quot;&gt;&amp;nbsp; &amp;nbsp; struct&lt;/span&gt;&lt;span style=&quot;color: #abb2bf&quot;&gt; packet_type &lt;/span&gt;&lt;span style=&quot;color: #c678dd&quot;&gt;*&lt;/span&gt;&lt;span style=&quot;color: #abb2bf&quot;&gt;ptype, &lt;/span&gt;&lt;span style=&quot;color: #c678dd&quot;&gt;*&lt;/span&gt;&lt;span style=&quot;color: #abb2bf&quot;&gt;pt_prev;&lt;/span&gt;&lt;/div&gt;&lt;div&gt;&lt;span style=&quot;color: #abb2bf&quot;&gt;&lt;/span&gt;&lt;span style=&quot;color: #56b6c2&quot;&gt;&amp;nbsp; &amp;nbsp; rx_handler_func_t&lt;/span&gt;&lt;span style=&quot;color: #abb2bf&quot;&gt; &lt;/span&gt;&lt;span style=&quot;color: #c678dd&quot;&gt;*&lt;/span&gt;&lt;span style=&quot;color: #abb2bf&quot;&gt;rx_handler;&lt;/span&gt;&lt;/div&gt;&lt;div&gt;&lt;span style=&quot;color: #abb2bf&quot;&gt;&lt;/span&gt;&lt;span style=&quot;color: #c678dd&quot;&gt;&amp;nbsp; &amp;nbsp; struct&lt;/span&gt;&lt;span style=&quot;color: #abb2bf&quot;&gt; net_device &lt;/span&gt;&lt;span style=&quot;color: #c678dd&quot;&gt;*&lt;/span&gt;&lt;span style=&quot;color: #abb2bf&quot;&gt;orig_dev;&lt;/span&gt;&lt;/div&gt;&lt;div&gt;&lt;span style=&quot;color: #abb2bf&quot;&gt;&lt;/span&gt;&lt;span style=&quot;color: #c678dd&quot;&gt;&amp;nbsp; &amp;nbsp; bool&lt;/span&gt;&lt;span style=&quot;color: #abb2bf&quot;&gt; deliver_exact &lt;/span&gt;&lt;span style=&quot;color: #c678dd&quot;&gt;=&lt;/span&gt;&lt;span style=&quot;color: #abb2bf&quot;&gt; &lt;/span&gt;&lt;span style=&quot;color: #d19a66&quot;&gt;false&lt;/span&gt;&lt;span style=&quot;color: #abb2bf&quot;&gt;;&lt;/span&gt;&lt;/div&gt;&lt;div&gt;&lt;span style=&quot;color: #abb2bf&quot;&gt;&lt;/span&gt;&lt;span style=&quot;color: #c678dd&quot;&gt;&amp;nbsp; &amp;nbsp; int&lt;/span&gt;&lt;span style=&quot;color: #abb2bf&quot;&gt; ret &lt;/span&gt;&lt;span style=&quot;color: #c678dd&quot;&gt;=&lt;/span&gt;&lt;span style=&quot;color: #abb2bf&quot;&gt; NET_RX_DROP;&lt;/span&gt;&lt;/div&gt;&lt;div&gt;&lt;span style=&quot;color: #abb2bf&quot;&gt;&amp;nbsp; &amp;nbsp; __be16 type;&lt;/span&gt;&lt;/div&gt;&lt;br&gt;&lt;div&gt;&lt;span style=&quot;color: #abb2bf&quot;&gt;&lt;/span&gt;&lt;span style=&quot;color: #61afef&quot;&gt;&amp;nbsp; &amp;nbsp; net_timestamp_check&lt;/span&gt;&lt;span style=&quot;color: #abb2bf&quot;&gt;(&lt;/span&gt;&lt;span style=&quot;color: #56b6c2&quot;&gt;!&lt;/span&gt;&lt;span style=&quot;color: #abb2bf&quot;&gt;netdev_tstamp_prequeue, skb);&lt;/span&gt;&lt;/div&gt;&lt;div&gt;&lt;span style=&quot;color: #abb2bf&quot;&gt;&amp;nbsp; &amp;nbsp; orig_dev &lt;/span&gt;&lt;span style=&quot;color: #c678dd&quot;&gt;=&lt;/span&gt;&lt;span style=&quot;color: #abb2bf&quot;&gt; &lt;/span&gt;&lt;span style=&quot;color: #e06c75&quot;&gt;skb&lt;/span&gt;&lt;span style=&quot;color: #abb2bf&quot;&gt;-&amp;gt;&lt;/span&gt;&lt;span style=&quot;color: #e06c75&quot;&gt;dev&lt;/span&gt;&lt;span style=&quot;color: #abb2bf&quot;&gt;;&lt;/span&gt;&lt;/div&gt;&amp;nbsp; &amp;nbsp; ...&lt;div&gt;&lt;span style=&quot;color: #abb2bf&quot;&gt;&lt;/span&gt;&lt;/div&gt;&lt;div&gt;&lt;span style=&quot;color: #abb2bf&quot;&gt;&lt;/span&gt;&lt;span style=&quot;color: #c678dd&quot;&gt;&amp;nbsp; &amp;nbsp; if&lt;/span&gt;&lt;span style=&quot;color: #abb2bf&quot;&gt; (&lt;/span&gt;&lt;span style=&quot;color: #61afef&quot;&gt;skb_skip_tc_classify&lt;/span&gt;&lt;span style=&quot;color: #abb2bf&quot;&gt;(skb))&lt;/span&gt;&lt;/div&gt;&lt;div&gt;&lt;span style=&quot;color: #abb2bf&quot;&gt;&lt;/span&gt;&lt;span style=&quot;color: #c678dd&quot;&gt;&amp;nbsp; &amp;nbsp; &amp;nbsp; &amp;nbsp;goto&lt;/span&gt;&lt;span style=&quot;color: #abb2bf&quot;&gt; skip_classify;&lt;/span&gt;&lt;/div&gt;&lt;div&gt;&lt;span style=&quot;color: #abb2bf&quot;&gt;&lt;/span&gt;&lt;span style=&quot;color: #c678dd&quot;&gt;&amp;nbsp; &amp;nbsp; ...&lt;/span&gt;&lt;/div&gt;&lt;div&gt;&lt;span style=&quot;color: #abb2bf&quot;&gt;skip_classify:&lt;/span&gt;&lt;/div&gt;&lt;div&gt;&lt;span style=&quot;color: #abb2bf&quot;&gt;&lt;/span&gt;&lt;span style=&quot;color: #c678dd&quot;&gt;&amp;nbsp; &amp;nbsp; if&lt;/span&gt;&lt;span style=&quot;color: #abb2bf&quot;&gt; (pfmemalloc &lt;/span&gt;&lt;span style=&quot;color: #56b6c2&quot;&gt;&amp;amp;&amp;amp;&lt;/span&gt;&lt;span style=&quot;color: #abb2bf&quot;&gt; &lt;/span&gt;&lt;span style=&quot;color: #56b6c2&quot;&gt;!&lt;/span&gt;&lt;span style=&quot;color: #61afef&quot;&gt;skb_pfmemalloc_protocol&lt;/span&gt;&lt;span style=&quot;color: #abb2bf&quot;&gt;(skb))&lt;/span&gt;&lt;/div&gt;&lt;div&gt;&lt;span style=&quot;color: #abb2bf&quot;&gt;&lt;/span&gt;&lt;span style=&quot;color: #c678dd&quot;&gt;&amp;nbsp; &amp;nbsp; &amp;nbsp; &amp;nbsp; goto&lt;/span&gt;&lt;span style=&quot;color: #abb2bf&quot;&gt; drop;&lt;/span&gt;&lt;/div&gt;&lt;br&gt;&lt;div&gt;&lt;span style=&quot;color: #abb2bf&quot;&gt;&lt;/span&gt;&lt;span style=&quot;color: #7f848e ; font-style: italic&quot;&gt;&amp;nbsp; &amp;nbsp; //xj:vlan?&lt;/span&gt;&lt;/div&gt;&lt;div&gt;&lt;span style=&quot;color: #abb2bf&quot;&gt;&lt;/span&gt;&lt;span style=&quot;color: #c678dd&quot;&gt;&amp;nbsp; &amp;nbsp; if&lt;/span&gt;&lt;span style=&quot;color: #abb2bf&quot;&gt; (&lt;/span&gt;&lt;span style=&quot;color: #61afef&quot;&gt;skb_vlan_tag_present&lt;/span&gt;&lt;span style=&quot;color: #abb2bf&quot;&gt;(skb))&lt;/span&gt;&lt;/div&gt;&lt;div&gt;&lt;span style=&quot;color: #abb2bf&quot;&gt;&amp;nbsp; &amp;nbsp; {&lt;/span&gt;&lt;/div&gt;&lt;div&gt;&lt;span style=&quot;color: #abb2bf&quot;&gt;&lt;/span&gt;&lt;span style=&quot;color: #c678dd&quot;&gt;&amp;nbsp; &amp;nbsp; &amp;nbsp; &amp;nbsp; if&lt;/span&gt;&lt;span style=&quot;color: #abb2bf&quot;&gt; (pt_prev)&lt;/span&gt;&lt;/div&gt;&lt;div&gt;&lt;span style=&quot;color: #abb2bf&quot;&gt;&amp;nbsp; &amp;nbsp; &amp;nbsp; &amp;nbsp; {&lt;/span&gt;&lt;/div&gt;&lt;div&gt;&lt;span style=&quot;color: #abb2bf&quot;&gt;&amp;nbsp; &amp;nbsp; &amp;nbsp; &amp;nbsp; &amp;nbsp; &amp;nbsp; ret &lt;/span&gt;&lt;span style=&quot;color: #c678dd&quot;&gt;=&lt;/span&gt;&lt;span style=&quot;color: #abb2bf&quot;&gt; &lt;/span&gt;&lt;span style=&quot;color: #61afef&quot;&gt;deliver_skb&lt;/span&gt;&lt;span style=&quot;color: #abb2bf&quot;&gt;(skb, pt_prev, orig_dev);&lt;/span&gt;&lt;/div&gt;&lt;div&gt;&lt;span style=&quot;color: #abb2bf&quot;&gt;&amp;nbsp; &amp;nbsp; &amp;nbsp; &amp;nbsp; &amp;nbsp; &amp;nbsp; pt_prev &lt;/span&gt;&lt;span style=&quot;color: #c678dd&quot;&gt;=&lt;/span&gt;&lt;span style=&quot;color: #abb2bf&quot;&gt; &lt;/span&gt;&lt;span style=&quot;color: #d19a66&quot;&gt;NULL&lt;/span&gt;&lt;span style=&quot;color: #abb2bf&quot;&gt;;&lt;/span&gt;&lt;/div&gt;&lt;div&gt;&lt;span style=&quot;color: #abb2bf&quot;&gt;&amp;nbsp; &amp;nbsp; &amp;nbsp; &amp;nbsp; }&lt;/span&gt;&lt;/div&gt;&lt;div&gt;&lt;span style=&quot;color: #abb2bf&quot;&gt;&lt;/span&gt;&lt;span style=&quot;color: #c678dd&quot;&gt;&amp;nbsp; &amp;nbsp; &amp;nbsp; &amp;nbsp; if&lt;/span&gt;&lt;span style=&quot;color: #abb2bf&quot;&gt; (&lt;/span&gt;&lt;span style=&quot;color: #61afef&quot;&gt;vlan_do_receive&lt;/span&gt;&lt;span style=&quot;color: #abb2bf&quot;&gt;(&lt;/span&gt;&lt;span style=&quot;color: #c678dd&quot;&gt;&amp;amp;&lt;/span&gt;&lt;span style=&quot;color: #abb2bf&quot;&gt;skb))&lt;/span&gt;&lt;/div&gt;&lt;div&gt;&lt;span style=&quot;color: #abb2bf&quot;&gt;&lt;/span&gt;&lt;span style=&quot;color: #c678dd&quot;&gt;&amp;nbsp; &amp;nbsp; &amp;nbsp; &amp;nbsp; &amp;nbsp; &amp;nbsp; goto&lt;/span&gt;&lt;span style=&quot;color: #abb2bf&quot;&gt; another_round;&lt;/span&gt;&lt;/div&gt;&lt;div&gt;&lt;span style=&quot;color: #abb2bf&quot;&gt;&lt;/span&gt;&lt;span style=&quot;color: #c678dd&quot;&gt;&amp;nbsp; &amp;nbsp; &amp;nbsp; &amp;nbsp; else&lt;/span&gt;&lt;span style=&quot;color: #abb2bf&quot;&gt; &lt;/span&gt;&lt;span style=&quot;color: #c678dd&quot;&gt;if&lt;/span&gt;&lt;span style=&quot;color: #abb2bf&quot;&gt; (&lt;/span&gt;&lt;span style=&quot;color: #61afef&quot;&gt;unlikely&lt;/span&gt;&lt;span style=&quot;color: #abb2bf&quot;&gt;(&lt;/span&gt;&lt;span style=&quot;color: #56b6c2&quot;&gt;!&lt;/span&gt;&lt;span style=&quot;color: #abb2bf&quot;&gt;skb))&lt;/span&gt;&lt;/div&gt;&lt;div&gt;&lt;span style=&quot;color: #abb2bf&quot;&gt;&lt;/span&gt;&lt;span style=&quot;color: #c678dd&quot;&gt;&amp;nbsp; &amp;nbsp; &amp;nbsp; &amp;nbsp; &amp;nbsp; &amp;nbsp; goto&lt;/span&gt;&lt;span style=&quot;color: #abb2bf&quot;&gt; out;&lt;/span&gt;&lt;/div&gt;&lt;div&gt;&lt;span style=&quot;color: #abb2bf&quot;&gt;&amp;nbsp; &amp;nbsp; }&lt;/span&gt;&lt;/div&gt;&lt;div&gt;&lt;span style=&quot;color: #abb2bf&quot;&gt;&lt;/span&gt;&lt;span style=&quot;color: #7f848e ; font-style: italic&quot;&gt;&amp;nbsp; &amp;nbsp; //xj:获取rx_handler&lt;/span&gt;&lt;/div&gt;&lt;div&gt;&lt;span style=&quot;color: #abb2bf&quot;&gt;&amp;nbsp; &amp;nbsp; rx_handler &lt;/span&gt;&lt;span style=&quot;color: #c678dd&quot;&gt;=&lt;/span&gt;&lt;span style=&quot;color: #abb2bf&quot;&gt; &lt;/span&gt;&lt;span style=&quot;color: #61afef&quot;&gt;rcu_dereference&lt;/span&gt;&lt;span style=&quot;color: #abb2bf&quot;&gt;(&lt;/span&gt;&lt;span style=&quot;color: #e06c75&quot;&gt;skb&lt;/span&gt;&lt;span style=&quot;color: #abb2bf&quot;&gt;-&amp;gt;&lt;/span&gt;&lt;span style=&quot;color: #e06c75&quot;&gt;dev&lt;/span&gt;&lt;span style=&quot;color: #abb2bf&quot;&gt;-&amp;gt;&lt;/span&gt;&lt;span style=&quot;color: #e06c75&quot;&gt;rx_handler&lt;/span&gt;&lt;span style=&quot;color: #abb2bf&quot;&gt;);&lt;/span&gt;&lt;/div&gt;&lt;div&gt;&lt;span style=&quot;color: #abb2bf&quot;&gt;&lt;/span&gt;&lt;span style=&quot;color: #c678dd&quot;&gt;&amp;nbsp; &amp;nbsp; if&lt;/span&gt;&lt;span style=&quot;color: #abb2bf&quot;&gt; (rx_handler)&lt;/span&gt;&lt;/div&gt;&lt;div&gt;&lt;span style=&quot;color: #abb2bf&quot;&gt;&amp;nbsp; &amp;nbsp; {&lt;/span&gt;&lt;/div&gt;&lt;div&gt;&lt;span style=&quot;color: #abb2bf&quot;&gt;&lt;/span&gt;&lt;span style=&quot;color: #c678dd&quot;&gt;&amp;nbsp; &amp;nbsp; &amp;nbsp; &amp;nbsp; if&lt;/span&gt;&lt;span style=&quot;color: #abb2bf&quot;&gt; (pt_prev)&lt;/span&gt;&lt;/div&gt;&lt;div&gt;&lt;span style=&quot;color: #abb2bf&quot;&gt;&amp;nbsp; &amp;nbsp; &amp;nbsp; &amp;nbsp; {&lt;/span&gt;&lt;/div&gt;&lt;div&gt;&lt;span style=&quot;color: #abb2bf&quot;&gt;&amp;nbsp; &amp;nbsp; &amp;nbsp; &amp;nbsp; &amp;nbsp; &amp;nbsp;&amp;nbsp;&lt;/span&gt;&lt;span style=&quot;color: rgb(127 , 132 , 142) ; font-style: italic&quot;&gt;//xj:如果有AF_PACKET tap设备，比如tcpdump(libcap)注册的,copy给他（net/packet/af_packet.c）&lt;/span&gt;&lt;/div&gt;&lt;div&gt;&lt;span style=&quot;color: #abb2bf&quot;&gt;&amp;nbsp; &amp;nbsp; &amp;nbsp; &amp;nbsp; &amp;nbsp; &amp;nbsp; ret &lt;/span&gt;&lt;span style=&quot;color: #c678dd&quot;&gt;=&lt;/span&gt;&lt;span style=&quot;color: #abb2bf&quot;&gt; &lt;/span&gt;&lt;span style=&quot;color: #61afef&quot;&gt;deliver_skb&lt;/span&gt;&lt;span style=&quot;color: #abb2bf&quot;&gt;(skb, pt_prev, orig_dev);&lt;/span&gt;&lt;/div&gt;&lt;div&gt;&lt;span style=&quot;color: #abb2bf&quot;&gt;&amp;nbsp; &amp;nbsp; &amp;nbsp; &amp;nbsp; &amp;nbsp; &amp;nbsp; pt_prev &lt;/span&gt;&lt;span style=&quot;color: #c678dd&quot;&gt;=&lt;/span&gt;&lt;span style=&quot;color: #abb2bf&quot;&gt; &lt;/span&gt;&lt;span style=&quot;color: #d19a66&quot;&gt;NULL&lt;/span&gt;&lt;span style=&quot;color: #abb2bf&quot;&gt;;&lt;/span&gt;&lt;/div&gt;&lt;div&gt;&lt;span style=&quot;color: #abb2bf&quot;&gt;&amp;nbsp; &amp;nbsp; &amp;nbsp; &amp;nbsp; }&lt;/span&gt;&lt;/div&gt;&lt;div&gt;&lt;span style=&quot;color: #abb2bf&quot;&gt;&lt;/span&gt;&lt;span style=&quot;color: #7f848e ; font-style: italic&quot;&gt;&amp;nbsp; &amp;nbsp; &amp;nbsp; &amp;nbsp; //xj:调用rx_handler&lt;/span&gt;&lt;/div&gt;&lt;div&gt;&lt;span style=&quot;color: #abb2bf&quot;&gt;&lt;/span&gt;&lt;span style=&quot;color: #c678dd&quot;&gt;&amp;nbsp; &amp;nbsp; &amp;nbsp; &amp;nbsp; switch&lt;/span&gt;&lt;span style=&quot;color: #abb2bf&quot;&gt; (&lt;/span&gt;&lt;span style=&quot;color: #61afef&quot;&gt;rx_handler&lt;/span&gt;&lt;span style=&quot;color: #abb2bf&quot;&gt;(&lt;/span&gt;&lt;span style=&quot;color: #c678dd&quot;&gt;&amp;amp;&lt;/span&gt;&lt;span style=&quot;color: #e06c75 ; font-style: italic&quot;&gt;skb&lt;/span&gt;&lt;span style=&quot;color: #abb2bf&quot;&gt;))&lt;/span&gt;&lt;/div&gt;&lt;div&gt;&lt;span style=&quot;color: #abb2bf&quot;&gt;&amp;nbsp; &amp;nbsp; &amp;nbsp; &amp;nbsp; {&lt;/span&gt;&lt;/div&gt;&lt;div&gt;&lt;span style=&quot;color: #abb2bf&quot;&gt;&lt;/span&gt;&lt;span style=&quot;color: #c678dd&quot;&gt;&amp;nbsp; &amp;nbsp; &amp;nbsp; &amp;nbsp; case&lt;/span&gt;&lt;span style=&quot;color: #abb2bf&quot;&gt; RX_HANDLER_CONSUMED:&lt;/span&gt;&lt;/div&gt;&lt;div&gt;&lt;span style=&quot;color: #abb2bf&quot;&gt;&amp;nbsp; &amp;nbsp; &amp;nbsp; &amp;nbsp; &amp;nbsp; &amp;nbsp; ret &lt;/span&gt;&lt;span style=&quot;color: #c678dd&quot;&gt;=&lt;/span&gt;&lt;span style=&quot;color: #abb2bf&quot;&gt; NET_RX_SUCCESS;&lt;/span&gt;&lt;/div&gt;&lt;div&gt;&lt;span style=&quot;color: #abb2bf&quot;&gt;&lt;/span&gt;&lt;span style=&quot;color: #c678dd&quot;&gt;&amp;nbsp; &amp;nbsp; &amp;nbsp; &amp;nbsp; &amp;nbsp; &amp;nbsp; goto&lt;/span&gt;&lt;span style=&quot;color: #abb2bf&quot;&gt; out;&lt;/span&gt;&lt;/div&gt;&lt;div&gt;&lt;span style=&quot;color: #abb2bf&quot;&gt;&lt;/span&gt;&lt;span style=&quot;color: #c678dd&quot;&gt;&amp;nbsp; &amp;nbsp; &amp;nbsp; &amp;nbsp; case&lt;/span&gt;&lt;span style=&quot;color: #abb2bf&quot;&gt; RX_HANDLER_ANOTHER:&lt;/span&gt;&lt;/div&gt;&lt;div&gt;&lt;span style=&quot;color: #abb2bf&quot;&gt;&lt;/span&gt;&lt;span style=&quot;color: #c678dd&quot;&gt;&amp;nbsp; &amp;nbsp; &amp;nbsp; &amp;nbsp; &amp;nbsp; &amp;nbsp; goto&lt;/span&gt;&lt;span style=&quot;color: #abb2bf&quot;&gt; another_round;&lt;/span&gt;&lt;/div&gt;&lt;div&gt;&lt;span style=&quot;color: #abb2bf&quot;&gt;&lt;/span&gt;&lt;span style=&quot;color: #c678dd&quot;&gt;&amp;nbsp; &amp;nbsp; &amp;nbsp; &amp;nbsp; case&lt;/span&gt;&lt;span style=&quot;color: #abb2bf&quot;&gt; RX_HANDLER_EXACT:&lt;/span&gt;&lt;/div&gt;&lt;div&gt;&lt;span style=&quot;color: #abb2bf&quot;&gt;&amp;nbsp; &amp;nbsp; &amp;nbsp; &amp;nbsp; &amp;nbsp; &amp;nbsp; deliver_exact &lt;/span&gt;&lt;span style=&quot;color: #c678dd&quot;&gt;=&lt;/span&gt;&lt;span style=&quot;color: #abb2bf&quot;&gt; &lt;/span&gt;&lt;span style=&quot;color: #d19a66&quot;&gt;true&lt;/span&gt;&lt;span style=&quot;color: #abb2bf&quot;&gt;;&lt;/span&gt;&lt;/div&gt;&lt;div&gt;&lt;span style=&quot;color: #abb2bf&quot;&gt;&lt;/span&gt;&lt;span style=&quot;color: #c678dd&quot;&gt;&amp;nbsp; &amp;nbsp; &amp;nbsp; &amp;nbsp; case&lt;/span&gt;&lt;span style=&quot;color: #abb2bf&quot;&gt; RX_HANDLER_PASS:&lt;/span&gt;&lt;/div&gt;&lt;div&gt;&lt;span style=&quot;color: #abb2bf&quot;&gt;&lt;/span&gt;&lt;span style=&quot;color: #c678dd&quot;&gt;&amp;nbsp; &amp;nbsp; &amp;nbsp; &amp;nbsp; &amp;nbsp; &amp;nbsp; break&lt;/span&gt;&lt;span style=&quot;color: #abb2bf&quot;&gt;;&lt;/span&gt;&lt;/div&gt;&lt;div&gt;&lt;span style=&quot;color: #abb2bf&quot;&gt;&lt;/span&gt;&lt;span style=&quot;color: #c678dd&quot;&gt;&amp;nbsp; &amp;nbsp; &amp;nbsp; &amp;nbsp; default&lt;/span&gt;&lt;span style=&quot;color: #abb2bf&quot;&gt;:&lt;/span&gt;&lt;/div&gt;&lt;div&gt;&lt;span style=&quot;color: #abb2bf&quot;&gt;&lt;/span&gt;&lt;span style=&quot;color: #61afef&quot;&gt;&amp;nbsp; &amp;nbsp; &amp;nbsp; &amp;nbsp; &amp;nbsp; &amp;nbsp; BUG&lt;/span&gt;&lt;span style=&quot;color: #abb2bf&quot;&gt;();&lt;/span&gt;&lt;/div&gt;&lt;div&gt;&lt;span style=&quot;color: #abb2bf&quot;&gt;&amp;nbsp; &amp;nbsp; &amp;nbsp; &amp;nbsp; }&lt;/span&gt;&lt;/div&gt;&lt;div&gt;&lt;span style=&quot;color: #abb2bf&quot;&gt;&amp;nbsp; &amp;nbsp; }&lt;/span&gt;&lt;/div&gt;&amp;nbsp; &amp;nbsp; ...&lt;br&gt;&lt;div&gt;}&lt;br&gt;&lt;/div&gt;&lt;/div&gt;" style="text;whiteSpace=wrap;html=1;" vertex="1" parent="1">
                    <mxGeometry x="480" y="1210" width="760" height="1210" as="geometry"/>
                </mxCell>
                <mxCell id="27" value="&lt;span style=&quot;color: rgb(171 , 178 , 191) ; font-family: &amp;#34;monaco&amp;#34; , &amp;#34;menlo&amp;#34; , &amp;#34;monaco&amp;#34; , &amp;#34;courier new&amp;#34; , monospace ; font-size: 13px ; text-align: left ; background-color: rgb(40 , 44 , 52)&quot;&gt;br_handle_frame&lt;/span&gt;" style="shape=process;whiteSpace=wrap;html=1;backgroundOutline=1;size=0.041666666666666664;" vertex="1" parent="1">
                    <mxGeometry x="80" y="819" width="240" height="40" as="geometry"/>
                </mxCell>
            </root>
        </mxGraphModel>
    </diagram>
</mxfile>